<?xml version="1.0" encoding="UTF-8"?><!DOCTYPE svg PUBLIC "-//W3C//DTD SVG 1.1//EN" "http://www.w3.org/Graphics/SVG/1.1/DTD/svg11.dtd"><svg xmlns="http://www.w3.org/2000/svg" xmlns:xlink="http://www.w3.org/1999/xlink"><defs>
        <path id="SVGID_1_" d="M0 0h409.9v410.9H0z"/>
    </defs><symbol id="icon-about-houses" viewBox="0 0 370.4 280.8">
    <path d="M364.4 268.8h-6.8V57.2c0-3.3-2.7-6-6-6h-34.4c-3.5-7.6-11.3-12.8-20-12.8s-16.5 5.2-20 12.8h-28.4V12h.4c3.3 0 6-2.7 6-6s-2.7-6-6-6H127.6c-3.3 0-6 2.7-6 6s2.7 6 6 6h.4v90.4H12.4c-3.3 0-6 2.7-6 6s2.7 6 6 6h.4v154.4H6c-3.3 0-6 2.7-6 6s2.7 6 6 6h358.4c3.3 0 6-2.7 6-6s-2.7-6-6-6zM281.5 63.2c2.9 0 5.3-2 5.9-4.8.9-4.6 5.1-8 9.8-8 4.7 0 8.9 3.4 9.8 8 .6 2.8 3 4.8 5.9 4.8h32.7v205.6h-96.8V63.2h32.7zM128 114.4v7.2H24.8v-7.2H128zM24.8 133.6H128v135.2H24.8V133.6zM140 268.8V12h96.8v256.8H140zm0 0"/>
    <path d="M262 248.8h25.6c3.3 0 6-2.7 6-6v-57.6c0-3.3-2.7-6-6-6H262c-3.3 0-6 2.7-6 6v57.6c0 3.3 2.7 6 6 6zm6-12v-20h13.6v20H268zm13.6-45.6v13.6H268v-13.6h13.6zm0 0"/>
    <path d="M306.8 248.8h25.6c3.3 0 6-2.7 6-6v-57.6c0-3.3-2.7-6-6-6h-25.6c-3.3 0-6 2.7-6 6v57.6c0 3.3 2.7 6 6 6zm6-12v-20h13.6v20h-13.6zm13.6-45.6v13.6h-13.6v-13.6h13.6zm0 0"/>
    <path d="M262 159.2h25.6c3.3 0 6-2.7 6-6v-56c0-4.2-3.4-7.6-7.6-7.6h-22.4c-4.2 0-7.6 3.4-7.6 7.6v56c0 3.3 2.7 6 6 6zm6-12v-20h13.6v20H268zm13.6-45.6v13.6H268v-13.6h13.6zm0 0"/>
    <path d="M306.8 159.2h25.6c3.3 0 6-2.7 6-6v-56c0-4.2-3.4-7.6-7.6-7.6h-22.4c-4.2 0-7.6 3.4-7.6 7.6v56c0 3.3 2.7 6 6 6zm6-12v-20h13.6v20h-13.6zm13.6-45.6v13.6h-13.6v-13.6h13.6zm0 0"/>
    <path d="M178.8 185.6h-25.6c-3.3 0-6 2.7-6 6v51.2c0 3.3 2.7 6 6 6h25.6c3.3 0 6-2.7 6-6v-51.2c0-3.3-2.7-6-6-6zm-6 12v7.2h-13.6v-7.2h13.6zm-13.6 39.2v-20h13.6v20h-13.6zm0 0"/>
    <path d="M223.6 185.6H198c-3.3 0-6 2.7-6 6v51.2c0 3.3 2.7 6 6 6h25.6c3.3 0 6-2.7 6-6v-51.2c0-3.3-2.7-6-6-6zm-6 12v7.2H204v-7.2h13.6zM204 236.8v-20h13.6v20H204zm0 0"/>
    <path d="M178.8 108.8h-25.6c-3.3 0-6 2.7-6 6V166c0 3.3 2.7 6 6 6h25.6c3.3 0 6-2.7 6-6v-51.2c0-3.3-2.7-6-6-6zm-6 12v7.2h-13.6v-7.2h13.6zM159.2 160v-20h13.6v20h-13.6zm0 0"/>
    <path d="M223.6 108.8H198c-3.3 0-6 2.7-6 6V166c0 3.3 2.7 6 6 6h25.6c3.3 0 6-2.7 6-6v-51.2c0-3.3-2.7-6-6-6zm-6 12v7.2H204v-7.2h13.6zM204 160v-20h13.6v20H204zm0 0"/>
    <path d="M178.8 32h-25.6c-3.3 0-6 2.7-6 6v51.2c0 3.3 2.7 6 6 6h25.6c3.3 0 6-2.7 6-6V38c0-3.3-2.7-6-6-6zm-6 12v7.2h-13.6V44h13.6zm-13.6 39.2v-20h13.6v20h-13.6zm0 0"/>
    <path d="M223.6 32H198c-3.3 0-6 2.7-6 6v51.2c0 3.3 2.7 6 6 6h25.6c3.3 0 6-2.7 6-6V38c0-3.3-2.7-6-6-6zm-6 12v7.2H204V44h13.6zM204 83.2v-20h13.6v20H204zm0 0"/>
    <path d="M114.8 147.2H38c-3.3 0-6 2.7-6 6v96c0 3.3 2.7 6 6 6h76.8c3.3 0 6-2.7 6-6v-96c0-3.3-2.7-6-6-6zm-70.8 44h26.4v20H44v-20zm38.4 0h26.4v20H82.4v-20zm26.4-12H82.4v-20h26.4v20zm-38.4-20v20H44v-20h26.4zm-26.4 64h26.4v20H44v-20zm38.4 20v-20h26.4v20H82.4zm0 0"/>
</symbol><symbol id="icon-about-town" viewBox="0 0 370.4 319.2">
    <path d="M364.4 307.2h-13.2v-70.8c0-3.3-2.7-6-6-6h-6.8v-13.2c0-6.8-5.6-12.4-12.4-12.4h-26v-77.2c0-3.3-2.7-6-6-6h-7.5c-2.2-9.1-9.4-16.2-18.5-18.5V63.6c0-3.3-2.7-6-6-6s-6 2.7-6 6v39.5c-9.1 2.2-16.2 9.4-18.5 18.5H236V70c0-2.1-1.1-4.1-3-5.2l-73.8-43.1V6c0-3.3-2.7-6-6-6s-6 2.7-6 6v96.4h-38.8c-3.3 0-6 2.7-6 6v72.1l-72.3 18.1c-2.7.7-4.5 3.1-4.5 5.8v102.8H6c-3.3 0-6 2.7-6 6s2.7 6 6 6h358.4c3.3 0 6-2.7 6-6s-2.7-6-6-6zm-89.6-76.8c-3.3 0-6 2.7-6 6v38.8H236v-52h45.6v7.2h-6.8zm64.4 51.2h-58.4V268h58.4v13.6zm-56-70.4H236v-52h52v47.2c-2 1.1-3.7 2.8-4.8 4.8zm-47.2 76h32.8v20H236v-20zm44.8 6.4h58.4v13.6h-58.4v-13.6zm58.4-37.6h-58.4v-13.6h58.4V256zm-12.8-38.8v13.2h-32.8v-13.2c0-.2.2-.4.4-.4h32c.2 0 .4.2.4.4zm-83.6-83.6c3.3 0 6-2.7 6-6 0-7.3 5.9-13.2 13.2-13.2s13.2 5.9 13.2 13.2c0 3.3 2.7 6 6 6h6.8v13.6h-52v-13.6h6.8zm-83.6-98L224 73.4v233.8h-13.6V82.8c0-3.3-2.7-6-6-6s-6 2.7-6 6v224.4h-13.6V108.4c0-3.3-2.7-6-6-6h-19.6V35.6zm13.6 206.8V256h-58.4v-13.6h58.4zm-58.4-12v-13.6h58.4v13.6h-58.4zm58.4-51.2h-58.4v-13.6h58.4v13.6zm0 12v13.6h-58.4v-13.6h58.4zM114.4 268h58.4v13.6h-58.4V268zm58.4-114.4h-58.4V140h58.4v13.6zm-58.4 140h58.4v13.6h-58.4v-13.6zm58.4-179.2V128h-58.4v-13.6h58.4zM37.6 209.1l64.8-16.2v114.3H88.8v-83.6c0-3.3-2.7-6-6-6s-6 2.7-6 6v83.6H63.2V230c0-3.3-2.7-6-6-6s-6 2.7-6 6v77.2H37.6v-98.1zm0 0"/>
</symbol><symbol id="icon-choice-arrow" viewBox="0 0 231.1 188.1">
    <path d="M188.5 85.2c-19.8-19.8-44.7-33.4-72-39.3-17.3-3.7-35-4.3-52.2-1.7V0L0 64.1l64.3 64.4v-60c38.6-6.8 79.1 5.5 107.3 33.7 22.9 22.9 35.6 53.5 35.6 85.9h24c-.1-38.9-15.2-75.4-42.7-102.9zm0 0"/>
</symbol><symbol id="icon-cup" viewBox="0 0 293.6 370.4">
    <path d="M281.2 57.6h-38.8v-21c7.4-2.5 12.8-9.5 12.8-17.8 0-10.4-8.4-18.8-18.8-18.8H57.2C46.8 0 38.4 8.4 38.4 18.8c0 8.3 5.4 15.3 12.8 17.8v21H12.4C5.6 57.6 0 63.2 0 70v25.6c0 38.6 31.4 70 70 70h.2c13.6 18.2 33.6 31.4 56.6 36.3-3.3 4.2-5.2 9.6-5.2 15.3 0 8.4 4.1 15.8 10.4 20.4-2.5 3.2-4 7.2-4 11.6v51.2c0 10.8-8.8 19.6-19.6 19.6H82.8c-6.8 0-12.4 5.6-12.4 12.4V358c0 6.8 5.6 12.4 12.4 12.4h128c6.8 0 12.4-5.6 12.4-12.4v-25.6c0-6.8-5.6-12.4-12.4-12.4h-25.6c-10.8 0-19.6-8.8-19.6-19.6v-51.2c0-4.4-1.5-8.4-4-11.6 6.3-4.6 10.4-12 10.4-20.4 0-5.8-1.9-11.1-5.2-15.3 23-4.9 42.9-18.1 56.6-36.3h.2c38.6 0 70-31.4 70-70V70c0-6.8-5.6-12.4-12.4-12.4zM57.2 12h179.2c3.8 0 6.8 3.1 6.8 6.8s-3.1 6.8-6.8 6.8H57.2c-3.8 0-6.8-3.1-6.8-6.8s3-6.8 6.8-6.8zM12 95.6V70c0-.2.2-.4.4-.4h38.8v38.8c0 16.1 4 31.3 11.1 44.7C33.9 149.3 12 125 12 95.6zM210.8 332c.2 0 .4.2.4.4V358c0 .2-.2.4-.4.4h-128c-.2 0-.4-.2-.4-.4v-25.6c0-.2.2-.4.4-.4h128zm-57.2-82.8v51.2c0 7.4 2.6 14.2 6.8 19.6h-27.3c4.3-5.4 6.8-12.2 6.8-19.6v-51.2c0-3.8 3.1-6.8 6.8-6.8s6.9 3 6.9 6.8zm6.4-32c0 7.3-5.9 13.2-13.2 13.2-7.3 0-13.2-5.9-13.2-13.2 0-7.3 5.9-13.2 13.2-13.2 7.3 0 13.2 5.9 13.2 13.2zM146.8 192c-46.1 0-83.6-37.5-83.6-83.6V37.6h167.2v70.8c0 46.1-37.5 83.6-83.6 83.6zm134.8-96.4c0 29.4-21.9 53.7-50.3 57.5 7.1-13.3 11.1-28.5 11.1-44.7V69.6h38.8c.2 0 .4.2.4.4v25.6zm0 0"/>
</symbol><symbol id="icon-facebook" viewBox="0 0 96.124 96.123">
    <path d="M72.089.02L59.624 0C45.62 0 36.57 9.285 36.57 23.656v10.907H24.037a1.96 1.96 0 0 0-1.96 1.961v15.803a1.96 1.96 0 0 0 1.96 1.96H36.57v39.876a1.96 1.96 0 0 0 1.96 1.96h16.352a1.96 1.96 0 0 0 1.96-1.96V54.287h14.654a1.96 1.96 0 0 0 1.96-1.96l.006-15.803a1.963 1.963 0 0 0-1.961-1.961H56.842v-9.246c0-4.444 1.059-6.7 6.848-6.7l8.397-.003a1.96 1.96 0 0 0 1.959-1.96V1.98A1.96 1.96 0 0 0 72.089.02z"/>
</symbol><symbol id="icon-gramophone" viewBox="0 0 409.9 410.9">
    <style>
        .st0{clip-path:url(#SVGID_2_)}
    </style>
    <path d="M134.5 84.2c-2-2-4.9-2.6-7.5-1.5-2.6 1.1-4.2 3.6-4.2 6.4 0 .7.3 72.4-45.3 118l-48.3 48.3L10 274.8c-6.4 6.4-10 15-10 24.1 0 9.1 3.6 17.7 10 24.1l4.8 4.8c-2.6 2.6-4 6-4 9.7 0 3.6 1.4 7.1 4 9.7L39 371.3c5.3 5.3 14 5.3 19.3 0l4.8 4.8c6.4 6.5 15 10 24.1 10 9.1 0 17.7-3.6 24.1-10l14.5-14.5 44.3 44.3c2.7 2.7 6.2 4 9.7 4 3.5 0 7-1.3 9.7-4l12.5-12.5c5.3-5.3 5.3-14 0-19.3l-13.7-13.7c1.5-3.1 2.9-7.4 2.9-12 0-3.8-3.1-6.8-6.8-6.8h-20.8c-3.8 0-6.8 3.1-6.8 6.8 0 3.8 3.1 6.8 6.8 6.8h12c-.5 1.1-1.1 1.9-1.4 2.4-2 2.7-1.6 6.4.7 8.8l17.3 17.3-12.5 12.5-49.1-49.1c-2.6-2.6-7.1-2.6-9.7 0l-19.3 19.3c-7.7 7.7-21.2 7.7-29 0l-9.7-9.7c-2.7-2.7-7-2.7-9.7 0l-4.8 4.8-24.1-24.1 4.8-4.8c2.7-2.7 2.7-7 0-9.7l-9.7-9.7c-3.9-3.9-6-9-6-14.5s2.1-10.6 6-14.5l14.5-14.5 70.3 69.8c1.3 1.3 3.1 2 4.8 2 1.8 0 3.5-.7 4.8-2 2.7-2.7 2.6-7 0-9.7l-70.2-69.7L87 216.7c36.6-36.6 46.1-86.9 48.5-112.1l142.8 142.8c-13.9 2-35.9 6.6-59.1 17.2L136.6 182c-2.7-2.7-7-2.7-9.7 0-2.7 2.7-2.7 7 0 9.7l79.3 79.3c-12.8 7.1-25.7 16.1-37.3 27.7l-29 29c-2.7 2.7-2.7 7 0 9.7 2.7 2.7 7 2.7 9.7 0l29-29c45.7-45.7 114.2-48.8 114.8-48.8 2.7-.1 5.1-1.8 6.1-4.3s.4-5.4-1.5-7.3L134.5 84.2zm0 0"/>
    
    <clipPath id="SVGID_2_">
        <use xlink:href="#SVGID_1_" overflow="visible"/>
    </clipPath>
    <path class="st0" d="M225.2 82.3c-3.8 0-6.8 3-6.8 6.8s3.1 6.8 6.8 6.8c15.3 0 44 3.1 64.8 23.9 20.8 20.8 23.9 49.5 23.9 64.8 0 3.8 3.1 6.8 6.8 6.8 3.8 0 6.8-3.1 6.8-6.8 0-17.4-3.6-50.1-27.9-74.5-24.3-24.2-57-27.8-74.4-27.8zm0 0"/>
    <path class="st0" d="M357.6 52.3C323.2 17.9 274.9-1.1 225 .4c-3.8.1-6.7 3.3-6.6 7 .1 3.8 3.2 6.8 7 6.6 46-1.3 90.8 16.2 122.5 47.9 31.8 31.8 49.2 76.4 47.9 122.5-.1 3.8 2.9 6.9 6.6 7h.2c3.7 0 6.7-2.9 6.8-6.6 1.5-49.7-17.4-98.1-51.8-132.5zm0 0"/>
    <path d="M227.5 41.3h-2.4c-3.8.1-6.8 3.2-6.7 6.9.1 3.7 3.1 6.7 6.8 6.7h.1c35.9-.7 70.3 12.5 93.7 35.9 23.9 23.9 37 58 35.9 93.6-.1 3.8 2.9 6.9 6.6 7h.2c3.7 0 6.7-2.9 6.8-6.6 1.2-39.3-13.4-77.1-39.9-103.6-25.5-25.4-62.2-39.9-101.1-39.9zm0 0"/>
</symbol><symbol id="icon-linkedin" viewBox="0 0 430.117 430.117">
    <path d="M430.117 261.543V420.56h-92.188V272.193c0-37.271-13.334-62.707-46.703-62.707-25.473 0-40.632 17.142-47.301 33.724-2.432 5.928-3.058 14.179-3.058 22.477V420.56h-92.219s1.242-251.285 0-277.32h92.21v39.309c-.187.294-.43.611-.606.896h.606v-.896c12.251-18.869 34.13-45.824 83.102-45.824 60.673-.001 106.157 39.636 106.157 124.818zM52.183 9.558C20.635 9.558 0 30.251 0 57.463c0 26.619 20.038 47.94 50.959 47.94h.616c32.159 0 52.159-21.317 52.159-47.94-.606-27.212-20-47.905-51.551-47.905zM5.477 420.56h92.184V143.24H5.477v277.32z"/>
</symbol><symbol id="icon-present" viewBox="0 0 332.5 376">
    <path d="M326.5 92.4h-16.1c11.6-9.6 19-24.1 19-40.2C329.4 23.4 306 0 277.2 0c-13.8 0-26.8 5.3-36.6 15l-45.2 44.7c-4.7-11.4-15.9-19.4-29-19.4s-24.3 8-29 19.4L92 15C82.2 5.3 69.2 0 55.4 0 26.6 0 3.2 23.4 3.2 52.2c0 16.2 7.4 30.6 18.9 40.2H6c-3.3 0-6 2.7-6 6v80c0 3.3 2.7 6 6 6h10V370c0 3.3 2.7 6 6 6h288.5c3.3 0 6-2.7 6-6V184.4h10c3.3 0 6-2.7 6-6v-80c0-3.3-2.7-6-6-6zm-77.6-68.8c7.6-7.5 17.6-11.6 28.2-11.6 22.2 0 40.2 18 40.2 40.2 0 22.2-18 40.2-40.2 40.2h-79.5V74.2l51.3-50.6zm-116.6 80.8h28v138c0 3.3 2.7 6 6 6s6-2.7 6-6v-138h28v175.4l-30.9-18.6c-1.9-1.1-4.3-1.1-6.2 0l-30.9 18.6V104.4zm34-52.1c10.7 0 19.4 8.7 19.4 19.4v20.7h-38.8V71.7c0-10.7 8.7-19.4 19.4-19.4zm-151.1-.1C15.2 30 33.2 12 55.4 12 66 12 76 16.1 83.6 23.5l51.3 50.7v18.2H55.4c-22.2 0-40.2-18-40.2-40.2zm305.3 120.2h-90.3c-3.3 0-6 2.7-6 6s2.7 6 6 6h74.3V364H28V184.4h74.3c3.3 0 6-2.7 6-6s-2.7-6-6-6H12v-68h108.3v186c0 2.2 1.2 4.2 3 5.2 1.9 1.1 4.2 1 6-.1l36.9-22.1 36.9 22.1c.9.6 2 .9 3.1.9 1 0 2-.3 3-.8 1.9-1.1 3-3.1 3-5.2v-186h108.3v68zm0 0"/>
    <path d="M55.4 24c-15.6 0-28.2 12.7-28.2 28.2 0 3.3 2.7 6 6 6s6-2.7 6-6c0-8.9 7.3-16.2 16.2-16.2 3.3 0 6-2.7 6-6s-2.7-6-6-6zm0 0"/>
</symbol><symbol id="icon-share-cup" viewBox="0 0 218.3 277.1">
    <style>
        .st0{fill:none;stroke:#f7931e;stroke-width:1.4173;stroke-miterlimit:10}
    </style>
    <path class="st0" d="M155.4 115.8c23.3-1.5 61.6-35.2 62.2-61.5.4-20.7-10.4-30.6-32.4-19"/>
    <path class="st0" d="M180.6 118.4c.3 3.9-2.9 7.2-7 7.5-4.2.3-7.7-2.7-8-6.5-.3-3.9 2.9-7.2 7-7.5 4.2-.4 7.8 2.6 8 6.5z"/>
    <path class="st0" d="M62.9 115.8C39.6 114.3 1.3 80.6.7 54.3c-.4-20.7 10.4-30.6 32.4-19"/>
    <path class="st0" d="M37.6 118.4c-.3 3.9 2.9 7.2 7 7.5 4.2.3 7.7-2.7 8-6.5.3-3.9-2.9-7.2-7-7.5-4.1-.4-7.7 2.6-8 6.5z"/>
    <path class="st0" d="M187 11.3c0 65.2-33.4 131.5-77.7 131.5-44.3 0-77.7-66.2-77.7-131.5"/>
    <path class="st0" d="M192 6c0 2.9-2.5 5.3-5.5 5.3H32c-3 0-5.5-2.4-5.5-5.3S29 .7 32 .7h154.5c3 0 5.5 2.4 5.5 5.3z"/>
    <path class="st0" d="M99.2 150.9h20v57.9h-20z"/>
    <path class="st0" d="M124.3 147.3c0 2-2.3 3.6-5 3.6H99.1c-2.8 0-5-1.6-5-3.6v-.8c0-2 2.3-3.6 5-3.6h20.2c2.8 0 5 1.6 5 3.6v.8z"/>
    <path class="st0" d="M124.3 213.2c0 2-2.3 3.6-5 3.6H99.1c-2.8 0-5-1.6-5-3.6v-.8c0-2 2.3-3.6 5-3.6h20.2c2.8 0 5 1.6 5 3.6v.8z"/>
    <path class="st0" d="M134.3 230.2c0 2-1.7 3.6-3.8 3.6H87.9c-2.1 0-3.8-1.6-3.8-3.6v-9.7c0-2 1.7-3.6 3.8-3.6h42.7c2.1 0 3.8 1.6 3.8 3.6v9.7z"/>
    <path class="st0" d="M147.8 251.1c0 2-1.7 3.6-3.8 3.6H74.4c-2.1 0-3.8-1.6-3.8-3.6v-13.6c0-2 1.7-3.6 3.8-3.6H144c2.1 0 3.8 1.6 3.8 3.6v13.6z"/>
    <path class="st0" d="M164.8 272.8c0 2-1.7 3.6-3.8 3.6H57.4c-2.1 0-3.8-1.6-3.8-3.6v-14.4c0-2 1.7-3.6 3.8-3.6H161c2.1 0 3.8 1.6 3.8 3.6v14.4z"/>
    <g>
        <path class="st0" d="M145 56.3c-.6-1.9-1.3-3.6-2.1-5.5-3.5-7.3-9.3-13.4-16.5-17.2-5.2-2.7-11.1-4.3-17.3-4.3-12.4 0-23.4 6.1-30.2 15.4-1.4 1.9-2.6 3.9-3.6 6.1-1.6 3.2-2.7 6.9-3.2 10.7-.2 1.7-.4 3.5-.4 5.2 0 1 .1 2 .2 3.1.3 3.1 1.1 6.3 2.3 9.6.7 2.1 1.7 4.2 2.7 6.3 2.4 4.9 8.7 14 8.7 14 7.7 10 17 17.4 23.5 17.4 7.2 0 16.4-7.3 23.9-17.1l5-8.3-5 8.3c3.3-4.3 6.3-9.2 8.5-14.1 1.7-3.6 3-7.3 3.9-10.9.4-1.7.7-3.4.9-5.1.1-1 .2-2.1.2-3.1 0-3.8-.5-7.2-1.5-10.5z"/>
        <path class="st0" d="M127 89.9h-2.9c-1.7 0-3.2-1.4-3.2-3.1V73.7c0-1.3-.6-2.4-1.6-3l-6.4-3.8c-.9-.5-1.9-.6-2.9-.3l-9.8 3.4c-1.4.5-2.4 1.8-2.4 3.3V87c0 1.7-1.2 2.9-2.9 2.9H92c-1.7 0-2.8-1.3-2.8-2.9V70.8c0-3.8 2.3-7.2 5.9-8.4l13.7-4.8c2.4-.8 5.1-.6 7.3.7l9.7 5.7c2.7 1.6 4.4 4.5 4.4 7.6v15.2c-.1 1.7-1.5 3.1-3.2 3.1"/>
        <path class="st0" d="M93.9 60.6l.8-.3c1.8-.6 3-2.2 3-4.1v-4.6c0-1.1-1-1.9-2-1.7L90 51.1c-.8.2-1.5.9-1.5 1.7v10.1c0 .5.6.8 1 .5 1.4-1.3 2.7-2.3 4.4-2.8"/>
    </g>
</symbol><symbol id="icon-vk" viewBox="0 0 304.36 304.36">
    <path d="M261.945 175.576c10.096 9.857 20.752 19.131 29.807 29.982 4 4.822 7.787 9.798 10.684 15.394 4.105 7.955.387 16.709-6.746 17.184l-44.34-.02c-11.436.949-20.559-3.655-28.23-11.474-6.139-6.253-11.824-12.908-17.727-19.372-2.42-2.642-4.953-5.128-7.979-7.093-6.053-3.929-11.307-2.726-14.766 3.587-3.523 6.421-4.322 13.531-4.668 20.687-.475 10.441-3.631 13.186-14.119 13.664-22.414 1.057-43.686-2.334-63.447-13.641-17.422-9.968-30.932-24.04-42.691-39.971-22.895-31.021-40.428-65.108-56.186-100.15C-2.01 76.458.584 72.22 9.295 72.07c14.465-.281 28.928-.261 43.41-.02 5.879.086 9.771 3.458 12.041 9.012 7.826 19.243 17.402 37.551 29.422 54.521 3.201 4.518 6.465 9.036 11.113 12.216 5.142 3.521 9.057 2.354 11.476-3.374 1.535-3.632 2.207-7.544 2.553-11.434 1.146-13.383 1.297-26.743-.713-40.079-1.234-8.323-5.922-13.711-14.227-15.286-4.238-.803-3.607-2.38-1.555-4.799 3.564-4.172 6.916-6.769 13.598-6.769h50.111c7.889 1.557 9.641 5.101 10.721 13.039l.043 55.663c-.086 3.073 1.535 12.192 7.07 14.226 4.43 1.448 7.35-2.096 10.008-4.905 11.998-12.734 20.561-27.783 28.211-43.366 3.395-6.852 6.314-13.968 9.143-21.078 2.096-5.276 5.385-7.872 11.328-7.757l48.229.043c1.43 0 2.877.021 4.262.258 8.127 1.385 10.354 4.881 7.844 12.817-3.955 12.451-11.65 22.827-19.174 33.251-8.043 11.129-16.645 21.877-24.621 33.072-7.328 10.223-6.746 15.376 2.357 24.255zm0 0" fill-rule="evenodd" clip-rule="evenodd"/>
</symbol><symbol id="icon-vote-logo" viewBox="0 0 736.8 153.8">
    <style>
        .st0{fill:#fff}
    </style>
    <path class="st0" d="M128.6 47.3c-1-3.4-2.2-6.6-3.7-9.7-6.1-12.9-16.3-23.5-28.9-30.1C86.9 2.7 76.6 0 65.6 0c-21.8 0-41.1 10.6-53 27-2.4 3.3-4.6 6.9-6.3 10.7C3.6 43.5 1.6 49.8.7 56.4c-.4 3-.7 6.1-.7 9.2 0 1.8.1 3.5.3 5.4 12.4-6 26-10.4 40.4-12.8 0 0 .1 0 .1-.1l24-8.4c4.3-1.5 9-1 12.9 1.3l12.1 7.1c7.6 1.2 14.9 3 22.1 5.3-7.1-2.3-14.5-4.1-22.1-5.3l4.9 2.9c4.8 2.8 7.7 7.9 7.7 13.4V101c0 2.9-2.5 5.4-5.4 5.4h-5c-2.9 0-5.6-2.4-5.6-5.4V77.9c0-2.2-1-4.2-2.9-5.3l-11.3-6.7c-1.6-.9-3.4-1.1-5.1-.5l-17.2 6c-2.5.9-4.2 3.2-4.2 5.9v23.9c0 2.9-2.2 5.1-5.1 5.1h-5.1c-2.9 0-5-2.2-5-5.1V72.8c0-6.6 4-12.5 10.2-14.7C26.3 60.5 12.7 64.9.3 71c.6 5.4 2 11.1 4 16.8 1.3 3.7 2.9 7.4 4.7 11.1 4.2 8.6 9.5 17 15.3 24.5 11.9-6.9 26.1-10.9 41.2-10.9 7.6 0 15 1 21.9 2.9-6.9-1.9-14.3-2.9-21.9-2.9-15.2 0-29.3 4-41.2 10.9 13.6 17.5 29.9 30.5 41.2 30.5 12.6 0 28.8-12.8 42-30-3.8-2.2-7.8-4.2-12-5.8 4.2 1.6 8.2 3.5 12 5.8 5.8-7.6 11-16.1 15-24.7-3.8-2.2-7.8-4.1-11.9-5.8 4.1 1.7 8.1 3.7 12 5.8 3-6.4 5.3-12.9 6.8-19.2.7-3 1.2-6 1.5-9 .2-1.8.3-3.6.3-5.4 0-6.3-.9-12.5-2.6-18.3zm-83 0c0 3.3-2.2 6.2-5.3 7.2l-1.5.5c-2.9 1-5.3 2.6-7.5 4.7-.7.6-1.8.1-1.8-.8V41.2c0-1.4 1.2-2.6 2.6-2.9l9.9-2c1.8-.4 3.6 1 3.6 2.9v8.1zm20-19.4c5.9 0 11.7.3 17.4.8-5.7-.5-11.5-.8-17.4-.8z"/>
    <path class="st0" d="M201.4 64.8c-2-1.5-5.4-3.3-8.6-4.2-4.7-1.4-11.3-1.4-16 .1l-2.3.7V41.5c0-3-2-5.4-5-5.4h-5.4c-3 0-5.8 2.5-5.8 5.4v68.4c0 3 2.8 5.4 5.8 5.4h5.4c3 0 5-2.4 5-5.4V79.5c0-.5.5-1 1-1.1 1.9-.7 7.8-2.5 9.3-2.5 1.9 0 4.1.9 5.8 2.1 2.8 1.9 4.2 5.2 4.2 8.6V110c0 3 2.8 5.4 5.8 5.4h5.4c3 0 5-2.4 5-5.4V86.5c.1-8.9-2.3-16.2-9.6-21.7"/>
    <path class="st0" d="M347.9 64.7c-2-1.5-5.5-3.3-8.7-4.2-4.5-1.3-9.3-1.3-13.8-.1l-9.4 3.2c-1.6-1.2-4-2.4-6.5-3.2-4.7-1.4-9.7-1.4-14.4.1l-2.1.7-12.6 4.5c-2.2.8-3.6 2.8-3.6 5.1v39c0 3 2.4 5.4 5.4 5.4h5.4c3 0 5.4-2.4 5.4-5.4V79.5c0-.5.3-.9.8-1.1 1.9-.7 6.3-2.5 7.8-2.5 4.6 0 7.4 3.7 7.6 6.7v27.3c0 3 2.4 5.4 5.4 5.4h5.4c3 0 5.4-2.4 5.4-5.4V78.5c0-.6.4-1.1.9-1.3 1.9-.7 4-1.4 4.9-1.4 1.9 0 4.2.9 6 2.1 2.8 1.9 4.4 5.2 4.4 8.6v23.4c0 3 2.4 5.4 5.4 5.4h5.3c3 0 5.5-2.5 5.5-5.5V86.5c.1-9-2.6-16.2-9.9-21.8"/>
    <path class="st0" d="M548.1 62c-2.9-1.3-6.8-2.5-11.7-2.5-2.8 0-5.2.3-7.8 1.1l-2.1.7-12.9 5c-2.1.8-3.6 2.8-3.6 5v38.6c0 3 2.7 5.4 5.7 5.4h5.4c3 0 5.1-2.4 5.1-5.4V79.4c0-.5.5-.9.9-1.1 1.9-.7 6.4-2.5 7.9-2.5 2.3 0 4.7.6 6.7 1.4 2.8 1.1 6-.2 7.1-3.1l2-5.3c1.2-2.7-.1-5.7-2.7-6.8"/>
    <path class="st0" d="M244.1 59c-17.9 0-27.5 14-27.5 28.4s9.5 28.4 27.5 28.4 27.5-14.1 27.5-28.4c0-14.3-9.6-28.4-27.5-28.4m-.1 40.2c-7.1 0-11.3-5.3-11.3-11.9 0-6.5 4.3-11.9 11.3-11.9 7 0 11.3 5.3 11.3 11.9 0 6.6-4.2 11.9-11.3 11.9"/>
    <path class="st0" d="M449.3 102.1c-1-2.6-3.8-4.1-6.4-3.3-3.6 1-7.5.7-9.2-.1-2.9-1.5-3-3.8-3-3.8v-20h7.2c3 0 5.4-2.2 5.4-5.2v-5.4c0-3-2.4-5.6-5.4-5.6h-7.2V46.2c0-3-2.4-5.6-5.4-5.6H420c-3 0-5.4 2.6-5.4 5.6v47.9c0 2.4-.3 12 7.6 17.8 3.4 2.5 7.5 3.7 12.4 3.7h.6c5.8 0 9.9-.7 12.6-1.5 3-.9 4.6-4.2 3.5-7.1l-2-4.9z"/>
    <path class="st0" d="M577.2 79.5c-4.7-1-8.1-2-8.1-3.4 0-1.9 3.5-2.5 6.7-2.4 4.2.1 7 1.3 10.2 3 2.5 1.4 5.7.5 7.2-1.9l2.3-3.8c1.5-2.5.7-5.7-1.8-7.3-3.6-2.2-9.5-4.7-18.3-4.7-15.8 0-22.5 9-22.5 16.7 0 8 4.8 13.4 14.9 16.2 8.2 2.3 13 3.8 13 6.1 0 1.8-2.3 2.4-5.7 2.4-4.6 0-9.2-2-12.6-4-2.4-1.4-5.6-.8-7.2 1.5l-2.9 4.1c-1.7 2.4-1.1 5.8 1.4 7.5 4.3 2.8 11.6 6.3 21.7 6.3 15.9 0 22.5-8.9 22.5-17.7-.1-10.1-7.4-15.7-20.8-18.6"/>
    <path class="st0" d="M388.3 79.6c-4.7-1-8.1-2-8.1-3.4 0-1.9 3.5-2.5 6.7-2.4 4.2.1 7 1.3 10.2 3 2.5 1.4 5.7.5 7.2-1.9l2.3-3.8c1.5-2.5.7-5.7-1.8-7.3-3.6-2.2-9.5-4.7-18.3-4.7-15.8 0-22.5 9-22.5 16.7 0 8 4.8 13.4 14.9 16.2 8.2 2.3 13 3.8 13 6.1 0 1.8-2.3 2.4-5.7 2.4-4.6 0-9.2-2-12.6-4-2.4-1.4-5.6-.8-7.2 1.5l-2.9 4.1c-1.7 2.4-1.1 5.8 1.4 7.5 4.3 2.8 11.6 6.3 21.7 6.3 15.9 0 22.5-8.9 22.5-17.7-.1-10-7.4-15.7-20.8-18.6"/>
    <path class="st0" d="M472.8 97.1l25.9-9.3c4.3-1.5 6.2-6.3 5.4-10.8-1.6-9.3-10.5-18.1-24.6-18.1-18.5 0-29.7 13.4-28.2 29.4 1.6 17.4 10.6 25.9 28.2 27.6 6.4.6 15.2-1 19.3-3.1 2.9-1.4 4.1-4 2.9-7l-2-4.6c-1.1-2.6-4.1-4.2-6.7-3.1-3.5 1.4-13 5.2-20.1.2-.6-.3-.6-1-.1-1.2m-4.4-13.2c-.5.2-.9-.2-.9-.7 0-4 2.9-8.2 8.3-9.8 5.5-1.6 10.1-.2 12.2 2.6.3.4.1.9-.3 1.1l-19.3 6.8z"/>
    <path class="st0" d="M736.8 111.1c-.4-5.4 1.1-10.5-4.1-10.5l-21.2.3c-1.4 0-5.7 1.4-4.7.4l24.7-24.1c3.2-3.4 4-7.7 2.4-11.5-1.8-4.1-6.1-6.7-10.9-6.7h-31.6c-2.1 0-3.7 1.7-3.7 3.7 0 2.5.1 4.9.1 7.4 0 2.1 1.7 3.7 3.7 3.7H709c3.2 0 6.6-1.9 7.7-2l-25 25.3c-3.3 3.5-4.2 7.9-2.5 11.8 1.7 4 5.9 6.5 10.6 6.5h32.9c2.4.1 4.3-1.9 4.1-4.3"/>
    <path class="st0" d="M614.6 96.7c-5.2 0-9.4 4.2-9.4 9.4s4.2 9.4 9.4 9.4 9.4-4.2 9.4-9.4-4.2-9.4-9.4-9.4"/>
    <path class="st0" d="M664.4 80.7c5.2-3.5 10.2-6.6 14.1-8.9 2.2-1.3 3-4.1 1.7-6.4l-2.8-4.9c-1.3-2.3-4.2-3.1-6.5-1.7-5.4 3.2-15.1 9.2-24.3 15.9V41.8c0-2.8-2.2-5.2-5.1-5.3-6.1-.3-12.3-.5-12.3 5.4v68.6c0 2.8 1.7 4.8 5.1 4.8 6.3 0 12.3 1.2 12.3-4.8V94c1.7-1.5 3.5-3 5.5-4.5 5.5 8.4 12.4 18 19 24.6 2 2 5.2 1.9 7-.3l3.7-4.4c1.6-1.9 1.4-4.6-.3-6.3-5.5-5.6-11.8-14.3-17.1-22.4"/>
</symbol></svg>