<?xml version="1.0" encoding="utf-8"?>
<!-- Generator: Adobe Illustrator 21.0.1, SVG Export Plug-In . SVG Version: 6.00 Build 0)  -->
<svg version="1.1" id="Layer_1" xmlns="http://www.w3.org/2000/svg" xmlns:xlink="http://www.w3.org/1999/xlink" x="0px" y="0px"
	 viewBox="0 0 736.8 153.8" style="enable-background:new 0 0 736.8 153.8;" xml:space="preserve">
<style type="text/css">
	.st0{fill:#7FC9E7;}
	.st1{fill:#009CD9;}
	.st2{fill:#0081C4;}
	.st3{fill:#F6AB4A;}
	.st4{fill:#F3902C;}
	.st5{fill:#FFFFFF;}
	.st6{fill:#155DA9;}
</style>
<path class="st0" d="M124.9,37.7C118.8,24.7,108.6,14.1,96,7.5C86.9,2.7,76.6,0,65.6,0c-21.8,0-41.1,10.6-53,27
	c-2.4,3.3-4.6,6.9-6.3,10.7c18.5-6.3,38.5-9.7,59.3-9.7C86.5,27.9,106.5,31.4,124.9,37.7"/>
<path class="st1" d="M0,65.6c0,1.8,0.1,3.5,0.3,5.4C19.8,61.5,42,56.1,65.6,56.1c23.6,0,45.8,5.4,65.3,14.8c0.2-1.8,0.3-3.6,0.3-5.4
	c0-6.3-0.9-12.5-2.6-18.2c-1-3.4-2.2-6.6-3.7-9.7c-18.5-6.3-38.5-9.7-59.3-9.7c-20.9,0-40.9,3.4-59.3,9.7
	c-2.7,5.8-4.7,12.1-5.6,18.7C0.2,59.4,0,62.5,0,65.6"/>
<path class="st2" d="M0.3,71c0.6,5.4,2,11.1,4,16.8c1.3,3.7,2.9,7.4,4.7,11.1c16.5-9.2,35.8-14.5,56.6-14.5c20.9,0,40.4,5.4,57,14.8
	c3-6.4,5.3-12.9,6.8-19.2c0.7-3,1.2-6,1.5-9c-19.5-9.4-41.7-14.8-65.3-14.8C42,56.1,19.8,61.5,0.3,71"/>
<path class="st3" d="M65.6,112.5c15.5,0,29.9,4.2,42,11.3c5.8-7.6,11-16.1,15-24.7c-16.6-9.4-36.1-14.8-57-14.8
	c-20.7,0-40.1,5.3-56.6,14.5c4.2,8.6,9.5,17,15.3,24.5C36.3,116.5,50.4,112.5,65.6,112.5"/>
<path class="st4" d="M24.4,123.4c13.6,17.5,29.9,30.5,41.2,30.5c12.6,0,28.8-12.8,42-30c-12.1-7.1-26.5-11.3-42-11.3
	C50.4,112.5,36.3,116.5,24.4,123.4"/>
<path class="st5" d="M97,106.4H92c-2.9,0-5.6-2.4-5.6-5.4V77.9c0-2.2-1-4.2-2.9-5.3l-11.3-6.7c-1.6-0.9-3.4-1.1-5.1-0.5l-17.2,6
	c-2.5,0.9-4.2,3.2-4.2,5.9v23.9c0,2.9-2.2,5.1-5.1,5.1h-5.1c-2.9,0-5-2.2-5-5.1V72.8c0-6.6,4.1-12.6,10.3-14.7l24-8.4
	c4.3-1.5,9-1,12.9,1.3l17,9.9c4.8,2.8,7.7,7.9,7.7,13.4V101C102.4,104,100,106.4,97,106.4"/>
<path class="st5" d="M38.8,54.9l1.5-0.5c3.1-1,5.3-3.9,5.3-7.2v-8.1c0-1.9-1.7-3.3-3.6-2.9l-9.9,2c-1.4,0.3-2.6,1.5-2.6,2.9v17.6
	c0,0.9,1.1,1.4,1.8,0.8C33.6,57.6,35.9,55.9,38.8,54.9"/>
<path class="st6" d="M201.4,64.8c-2-1.5-5.4-3.3-8.6-4.2c-4.7-1.4-11.3-1.4-16,0.1l-2.3,0.7V41.5c0-3-2-5.4-5-5.4h-5.4
	c-3,0-5.8,2.5-5.8,5.4v68.4c0,3,2.8,5.4,5.8,5.4h5.4c3,0,5-2.4,5-5.4V79.5c0-0.5,0.5-1,1-1.1c1.9-0.7,7.8-2.5,9.3-2.5
	c1.9,0,4.1,0.9,5.8,2.1c2.8,1.9,4.2,5.2,4.2,8.6v23.4c0,3,2.8,5.4,5.8,5.4h5.4c3,0,5-2.4,5-5.4V86.5
	C211.1,77.6,208.7,70.3,201.4,64.8"/>
<path class="st6" d="M347.9,64.7c-2-1.5-5.5-3.3-8.7-4.2c-4.5-1.3-9.3-1.3-13.8-0.1v0l-9.4,3.2c-1.6-1.2-4-2.4-6.5-3.2
	c-4.7-1.4-9.7-1.4-14.4,0.1l-2.1,0.7l-12.6,4.5c-2.2,0.8-3.6,2.8-3.6,5.1v39c0,3,2.4,5.4,5.4,5.4h5.4c3,0,5.4-2.4,5.4-5.4V79.5
	c0-0.5,0.3-0.9,0.8-1.1c1.9-0.7,6.3-2.5,7.8-2.5c4.6,0,7.4,3.7,7.6,6.7v27.3c0,3,2.4,5.4,5.4,5.4h5.4c3,0,5.4-2.4,5.4-5.4l0-31.4
	c0-0.6,0.4-1.1,0.9-1.3c1.9-0.7,4-1.4,4.9-1.4c1.9,0,4.2,0.9,6,2.1c2.8,1.9,4.4,5.2,4.4,8.6v23.4c0,3,2.4,5.4,5.4,5.4h5.3
	c3,0,5.5-2.5,5.5-5.5V86.5C357.9,77.5,355.2,70.3,347.9,64.7"/>
<path class="st6" d="M548.1,62c-2.9-1.3-6.8-2.5-11.7-2.5c-2.8,0-5.2,0.3-7.8,1.1l-2.1,0.7l-12.9,5c-2.1,0.8-3.6,2.8-3.6,5v38.6
	c0,3,2.7,5.4,5.7,5.4h5.4c3,0,5.1-2.4,5.1-5.4V79.4c0-0.5,0.5-0.9,0.9-1.1c1.9-0.7,6.4-2.5,7.9-2.5c2.3,0,4.7,0.6,6.7,1.4
	c2.8,1.1,6-0.2,7.1-3.1l2-5.3C552,66.1,550.7,63.1,548.1,62"/>
<path class="st6" d="M244.1,59c-17.9,0-27.5,14-27.5,28.4s9.5,28.4,27.5,28.4c18,0,27.5-14.1,27.5-28.4C271.6,73.1,262,59,244.1,59
	 M244,99.2c-7.1,0-11.3-5.3-11.3-11.9c0-6.5,4.3-11.9,11.3-11.9c7,0,11.3,5.3,11.3,11.9C255.3,93.9,251.1,99.2,244,99.2"/>
<path class="st6" d="M449.3,102.1c-1-2.6-3.8-4.1-6.4-3.3c-3.6,1-7.5,0.7-9.2-0.1c-2.9-1.5-3-3.8-3-3.8v-20h7.2c3,0,5.4-2.2,5.4-5.2
	v-5.4c0-3-2.4-5.6-5.4-5.6h-7.2V46.2c0-3-2.4-5.6-5.4-5.6H420c-3,0-5.4,2.6-5.4,5.6v47.9c0,2.4-0.3,12,7.6,17.8
	c3.4,2.5,7.5,3.7,12.4,3.7c0.2,0,0.4,0,0.6,0c5.8,0,9.9-0.7,12.6-1.5c3-0.9,4.6-4.2,3.5-7.1L449.3,102.1z"/>
<path class="st6" d="M577.2,79.5c-4.7-1-8.1-2-8.1-3.4c0-1.9,3.5-2.5,6.7-2.4c4.2,0.1,7,1.3,10.2,3c2.5,1.4,5.7,0.5,7.2-1.9l2.3-3.8
	c1.5-2.5,0.7-5.7-1.8-7.3c-3.6-2.2-9.5-4.7-18.3-4.7c-15.8,0-22.5,9-22.5,16.7c0,8,4.8,13.4,14.9,16.2c8.2,2.3,13,3.8,13,6.1
	c0,1.8-2.3,2.4-5.7,2.4c-4.6,0-9.2-2-12.6-4c-2.4-1.4-5.6-0.8-7.2,1.5l-2.9,4.1c-1.7,2.4-1.1,5.8,1.4,7.5c4.3,2.8,11.6,6.3,21.7,6.3
	c15.9,0,22.5-8.9,22.5-17.7C597.9,88,590.6,82.4,577.2,79.5"/>
<path class="st6" d="M388.3,79.6c-4.7-1-8.1-2-8.1-3.4c0-1.9,3.5-2.5,6.7-2.4c4.2,0.1,7,1.3,10.2,3c2.5,1.4,5.7,0.5,7.2-1.9l2.3-3.8
	c1.5-2.5,0.7-5.7-1.8-7.3c-3.6-2.2-9.5-4.7-18.3-4.7c-15.8,0-22.5,9-22.5,16.7c0,8,4.8,13.4,14.9,16.2c8.2,2.3,13,3.8,13,6.1
	c0,1.8-2.3,2.4-5.7,2.4c-4.6,0-9.2-2-12.6-4c-2.4-1.4-5.6-0.8-7.2,1.5l-2.9,4.1c-1.7,2.4-1.1,5.8,1.4,7.5c4.3,2.8,11.6,6.3,21.7,6.3
	c15.9,0,22.5-8.9,22.5-17.7C409,88.2,401.7,82.5,388.3,79.6"/>
<path class="st6" d="M472.8,97.1l25.9-9.3c4.3-1.5,6.2-6.3,5.4-10.8c-1.6-9.3-10.5-18.1-24.6-18.1c-18.5,0-29.7,13.4-28.2,29.4
	c1.6,17.4,10.6,25.9,28.2,27.6c6.4,0.6,15.2-1,19.3-3.1c2.9-1.4,4.1-4,2.9-7l-2-4.6c-1.1-2.6-4.1-4.2-6.7-3.1
	c-3.5,1.4-13,5.2-20.1,0.2C472.3,98,472.3,97.3,472.8,97.1 M468.4,83.9c-0.5,0.2-0.9-0.2-0.9-0.7c0-4,2.9-8.2,8.3-9.8
	c5.5-1.6,10.1-0.2,12.2,2.6c0.3,0.4,0.1,0.9-0.3,1.1L468.4,83.9z"/>
<path class="st4" d="M736.8,111.1c-0.4-5.4,1.1-10.5-4.1-10.5l-21.2,0.3c-1.4,0-5.7,1.4-4.7,0.4l24.7-24.1c3.2-3.4,4-7.7,2.4-11.5
	c-1.8-4.1-6.1-6.7-10.9-6.7h-31.6c-2.1,0-3.7,1.7-3.7,3.7c0,0,0,0,0,0c0,2.5,0.1,4.9,0.1,7.4c0,2.1,1.7,3.7,3.7,3.7H709
	c3.2,0,6.6-1.9,7.7-2l-25,25.3c-3.3,3.5-4.2,7.9-2.5,11.8c1.7,4,5.9,6.5,10.6,6.5h32.9C735.1,115.5,737,113.5,736.8,111.1"/>
<path class="st4" d="M614.6,96.7c-5.2,0-9.4,4.2-9.4,9.4c0,5.2,4.2,9.4,9.4,9.4s9.4-4.2,9.4-9.4C624,100.9,619.8,96.7,614.6,96.7"/>
<path class="st4" d="M664.4,80.7c5.2-3.5,10.2-6.6,14.1-8.9c2.2-1.3,3-4.1,1.7-6.4l-2.8-4.9c-1.3-2.3-4.2-3.1-6.5-1.7
	c-5.4,3.2-15.1,9.2-24.3,15.9v-3.8V41.8c0-2.8-2.2-5.2-5.1-5.3c-6.1-0.3-12.3-0.5-12.3,5.4v68.6c0,2.8,1.7,4.8,5.1,4.8
	c6.3,0,12.3,1.2,12.3-4.8V94.2V94c1.7-1.5,3.5-3,5.5-4.5c5.5,8.4,12.4,18,19,24.6c2,2,5.2,1.9,7-0.3l3.7-4.4
	c1.6-1.9,1.4-4.6-0.3-6.3C676,97.5,669.7,88.8,664.4,80.7"/>
</svg>
