<?xml version="1.0" encoding="UTF-8"?><!DOCTYPE svg PUBLIC "-//W3C//DTD SVG 1.1//EN" "http://www.w3.org/Graphics/SVG/1.1/DTD/svg11.dtd"><svg xmlns="http://www.w3.org/2000/svg"><symbol id="icon-actrazeneca-clock" viewBox="0 0 60 60">
    <style>
        .st0{fill:none;stroke:#231f20;stroke-width:2;stroke-linecap:round;stroke-linejoin:round;stroke-miterlimit:10}
    </style>
    <path class="st0" d="M59 30c0 16-13 29-29 29S1 46 1 30 14 1 30 1s29 13 29 29z"/>
    <path class="st0" d="M29 16.1V30l14.9 13.9"/>
</symbol><symbol id="icon-actrazeneca-graph" viewBox="0 0 60 60">
    <style>
        .st0{fill:none;stroke:#000;stroke-width:2;stroke-linecap:round;stroke-linejoin:round;stroke-miterlimit:10}
    </style>
    <path class="st0" d="M1 59h58"/>
    <path class="st0" d="M5 47h8v12H5z"/>
    <path class="st0" d="M19 33h8v26h-8z"/>
    <path class="st0" d="M33 39h8v20h-8z"/>
    <path class="st0" d="M47 21h8v38h-8z"/>
    <circle class="st0" cx="53" cy="4" r="3"/>
    <circle class="st0" cx="38" cy="22" r="3"/>
    <circle class="st0" cx="23" cy="16" r="3"/>
    <circle class="st0" cx="8" cy="29" r="3"/>
    <path class="st0" d="M10.3 27l10.4-9"/>
    <path class="st0" d="M25.8 17.1l9.4 3.8"/>
    <path class="st0" d="M39.9 19.7L51.1 6.3"/>
</symbol><symbol id="icon-actrazeneca-percent" viewBox="0 0 60 60">
    <style>
        .st0{fill:none;stroke:#000;stroke-width:2;stroke-linecap:round;stroke-linejoin:round;stroke-miterlimit:10}
    </style>
    <path class="st0" d="M1 59L59 1"/>
    <circle class="st0" cx="12" cy="12" r="9"/>
    <circle class="st0" cx="48" cy="48" r="9"/>
</symbol><symbol id="icon-astrazeneca-logo" viewBox="0 0 187.1 46.7">
    <path d="M6 37.2l3-8.4 2.9 8.4H6zm9 8.4h2.8l-7.3-20.1H7.7L0 45.6h2.9l2.3-6.2h7.7l2.1 6.2z" fill="#2d2a6e"/>
    <path d="M23.9 38.7c-2.6-.6-5.3-1.2-5.3-4.3 0-2.8 2.3-4.5 5.9-4.5 2.3 0 4.5.9 5.6 2.9l-2.4 1c-.2-.6-1.4-2-3.5-2-2 0-3 1.2-3 2.2 0 1.5 1.9 2.1 3.6 2.4 3.4.7 6.3 1.5 6.3 4.7 0 2.5-2.2 4.8-6.4 4.8-3.1 0-5.3-1-6.4-3.2l2.7-.5c.7 1.2 1.9 1.7 3.8 1.7 2.3 0 3.6-.9 3.6-2.5 0-1.7-2.2-2.2-4.5-2.7z" fill="#2d2a6e"/>
    <path d="M36.7 30.3h2.8v2.1h-2.8v8.7c0 1.8 0 2.6 1.1 2.6.5 0 1.2-.2 1.7-.4v2.1c-.5.1-1.5.3-2.5.3-3 0-3-1.4-2.9-3.4v-9.9h-2.4v-2.1h2.4v-3.7l2.7-1.1v4.8h-.1z" fill="#2d2a6e"/>
    <path d="M44.4 30.3V33c1.5-2.9 4.2-3 5.2-3v2.7c-2.5 0-3.8.5-4.6 1.9-.7 1.1-.6 2.7-.6 4v7h-2.6V30.3h2.6z" fill="#2d2a6e"/>
    <path fill="#2d2a6e" d="M79.3 25.5V28L67.9 43.2h11.7v2.4H64.8V43l11.5-15H64.8v-2.5z"/>
    <path d="M98.3 30.4v2.2c1.4-2.5 3.9-2.7 4.8-2.7 1.9 0 4.3 1 5 3.5.3.9.3 1.8.3 3.1v9.1h-2.6V37c0-1.6 0-2-.2-2.5-.5-1.5-1.9-2.1-3.3-2.1-1.1 0-2.1.4-2.9 1.2-1.1 1.1-1.1 2.3-1.1 3.4v8.7h-2.6V30.4h2.6z" fill="#2d2a6e"/>
    <path d="M137.9 42.9c-1 1.5-2.7 3-5.8 3-5.4 0-7.5-4.2-7.5-7.9 0-4.3 2.4-8.3 7.2-8.3 1.9 0 4.6.6 6.1 3l-2.4 1c-.5-1-1.4-2.2-3.6-2.2-4.2 0-4.5 4.8-4.5 6.2 0 5 2.9 6.1 4.6 6.1 2 0 3-1 3.5-2l2.4 1.1z" fill="#2d2a6e"/>
    <path d="M83.3 36.4h8.1c-.2-4-2.5-4.7-4.1-4.7-2.1 0-3.7 1.6-4 4.7zm10.2 6.3c-.9 1.5-2.6 3.2-5.9 3.2-4.5 0-7.1-3.1-7.1-8.2 0-5.8 3.8-8 7-8 2.8 0 5.5 1.6 6.4 5.4.3 1.3.3 2.5.3 3.1h-11c-.1 2.6 1 5.8 4.6 5.7 1.5 0 2.5-.7 3.2-1.7l2.5.5z" fill="#2d2a6e"/>
    <path d="M112.5 36.4h8.1c-.2-4-2.5-4.7-4.1-4.7-2.1 0-3.7 1.6-4 4.7zm10.3 6.3c-.9 1.5-2.6 3.2-5.9 3.2-4.5 0-7.1-3.1-7.1-8.2 0-5.8 3.8-8 7-8 2.8 0 5.5 1.6 6.4 5.4.3 1.3.3 2.5.3 3.1h-11c-.1 2.6 1 5.8 4.6 5.7 1.5 0 2.5-.7 3.2-1.7l2.5.5z" fill="#2d2a6e"/>
    <path d="M152 45.6h-2.7s-.2-1.1-.3-2.3c-.8.8-2.2 2.5-5.1 2.5-3 0-5.2-1.8-5.2-4.4 0-.8.2-1.6.7-2.3.9-1.3 2.5-2.3 7.1-2.7l2.4-.2V36c0-1.6 0-4.2-3.4-4.2-2.1 0-2.9 1-3.1 2l-2.4-1c0-.1.1-.2.1-.3.9-1.7 2.7-2.7 5.3-2.7 1.4 0 3.3.4 4.5 1.3 1.7 1.3 1.7 3.8 1.7 3.8l.1 7.9c-.2-.1-.1 2.2.3 2.8zm-3.6-4.2c.4-.8.4-1.2.4-3.4-1 .2-2.4.4-4 .7-2.8.6-3.3 1.7-3.3 2.8 0 1.2 1 2.3 2.9 2.3 1.8-.1 3.3-.8 4-2.4z" fill="#2d2a6e"/>
    <path d="M63 45.6h-2.7s-.2-1.1-.3-2.3c-.8.8-2.2 2.5-5.1 2.5-3 0-5.2-1.8-5.2-4.4 0-.8.2-1.6.7-2.3.9-1.3 2.5-2.3 7.1-2.7l2.4-.2V36c0-1.6 0-4.2-3.4-4.2-2.1 0-2.9 1-3.1 2l-2.4-1c0-.1.1-.2.1-.3.9-1.7 2.7-2.7 5.3-2.7 1.4 0 3.3.4 4.5 1.3 1.7 1.3 1.7 3.8 1.7 3.8l.1 7.9c-.1-.1 0 2.2.3 2.8zm-3.5-4.2c.4-.8.4-1.2.4-3.4-1 .2-2.4.4-4 .7-2.8.6-3.3 1.7-3.3 2.8 0 1.2 1 2.3 2.9 2.3 1.7-.1 3.2-.8 4-2.4z" fill="#2d2a6e"/>
    <path d="M187.1 24.4v-.3c0-.2-.1-.4-.2-.5-.1-.2-.2-.4-.3-.5-.1-.2-.2-.4-.4-.6l-.3-.3-.3-.3c-.3-.2-.5-.4-.8-.6-.6-.4-1.2-.8-1.9-1.1-.8-.4-1.6-.8-2.4-1.1l-5.6-2v-3.2c0-1.6-.1-3.2-.2-4.8-.1-1.1-.2-2.2-.4-3.3-.1-.9-.3-1.7-.5-2.5 0-.2-.1-.4-.2-.6-.1-.2-.1-.3-.2-.5-.1-.1-.1-.3-.2-.4-.1-.1-.1-.3-.2-.4-.1-.1-.1-.2-.2-.3-.1-.1-.1-.2-.2-.3l-.2-.2c-.1-.1-.2-.1-.2-.2-.1-.1-.2-.1-.2-.1-.1 0-.1-.1-.2-.1-.1-.1-.3-.1-.4-.1-.1 0-.2-.1-.4-.1h-.8c-.2 0-.3 0-.5.1-.2 0-.3.1-.5.1-.2.1-.4.1-.5.2-.2.1-.4.2-.5.3-.2.1-.4.2-.6.4-.3.2-.6.5-.9.7-1.2 1.1-2.3 2.2-3.5 3.4-.6.6-1.2 1.2-1.7 1.9-2.2 2.6-4.3 5.3-6.4 7.9-.9 1.2-1.8 2.5-2.6 3.7-.2.3-.4.6-.6 1l-.9 1.8c-.1.2-.1.3-.2.5s-.1.3-.1.5c0 .1-.1.3-.1.5V23.6c0 .1.1.1.1.2s.1.1.1.2l.2.2.4.4c.2.1.3.3.5.4.3.2.6.4.9.5.1.1.3.1.4.2 0 0-.1 0-.1-.1.1 0 .1.1.2.1 1.9 1 3.7 1.9 5.6 2.9 1.9 1 3.7 2 5.5 3l4.1 2.3c-1.4 1.1-2.9 2.1-4.3 3.2-.5.4-1 .9-1.5 1.4-.4.4-.8.8-1.1 1.2-.3.3-.5.7-.8 1.1-.2.3-.4.6-.5.9-.1.2-.2.5-.3.7-.1.2-.1.4-.1.5v1c0 .1 0 .2.1.3 0 .1.1.2.1.2 0 .1.1.2.1.2 0 .1.1.1.1.2.1.1.2.3.3.4s.2.2.4.3c.1.1.3.2.4.3.1.1.3.1.4.2.2.1.3.1.5.2.6.1 1.2.2 1.7.3.3 0 .6.1.9 0l3-.3c1.2-.2 2.3-.4 3.4-.7 1.3-.3 2.7-.6 4-1 .9-.2 1.9-.5 2.8-.8l2.1-.9c.2-.1.3-.2.5-.2.1-.1.3-.2.4-.3l.3-.3c.1-.1.2-.2.2-.3.1-.1.1-.2.1-.3 0-.1.1-.2.1-.3v-.2-.2c0-.1 0-.2-.1-.2 0-.1-.1-.1-.1-.2s-.1-.1-.1-.2-.1-.1-.1-.2l-.3-.3c-.1-.1-.2-.2-.3-.2-.1-.1-.2-.1-.3-.2-.7-.4-1.5-.9-2.2-1.3l-3.1-1.8c1.9-1.3 3.8-2.5 5.6-3.8.8-.6 1.6-1.1 2.3-1.7.6-.5 1.3-1.1 1.9-1.7.3-.3.5-.6.8-.9.1-.1.2-.3.3-.4.1-.1.2-.3.3-.4.2-.5.5-1 .7-1.5.1-.2.1-.4.2-.6v-.3-.3c-.2.1-.2 0-.2-.1zM164 11.8c1-1.1 2.1-2.2 3.2-3.2l.6-.6.2-.2c.1 0 .1-.1.2-.1l.1-.1c.1 0 .1 0 .2-.1h.4s.1 0 .1.1l.1.1.1.1.1.1c.1.1.1.3.1.4 0 .2.1.4.1.6.1.5.1 1 .2 1.5.1.6.1 1.3.2 1.9l.3 3.4-3.8-.9-3.5-.6-.9-.1h-.3c.7-.6 1.5-1.5 2.3-2.3zm-2.4 4.7h.2l.3.1.5.2 3.6 1.5c.8.3 1.6.7 2.4 1l1.6.7.1.1c.1 1.3.2 2.5.3 3.8.1 1 .1 2 .1 2.9v.8c0 .1 0 .1-.1.2 0 .1-.1.1-.1.2 0 0-.1 0-.1.1 0 0-.1 0-.1.1h-.1-.7c-.1 0-.1 0-.2-.1s-.2-.1-.4-.2c-.1-.1-.3-.2-.4-.3-.1-.1-.3-.2-.4-.3-.1-.1-.3-.2-.4-.4-.3-.3-.5-.6-.8-.9-.5-.6-.9-1.1-1.3-1.7-.6-.8-1.1-1.6-1.7-2.5-.3-.5-.7-1-.9-1.5l-1-2.3-.3-.8-.1-.2v-.5zM175.1 38c.3.2.7.4 1 .6.4.3.8.5 1.2.8.3.2.6.4.8.7l.3.3c.1.1.2.2.2.3v.1h-.1-.1c-1.6.1-3.2.2-4.8.4l-6.3.5h-.2l.1-.1.4-.3 2.4-1.8 3.5-2.4c.7.3 1.2.6 1.6.9zm4.8-12.4c0 .1 0 .1-.1.2 0 .1-.1.1-.1.2-.1.1-.2.3-.3.4-.3.2-.5.5-.8.7l-3 2.1c-.7.5-1.4.9-2.1 1.4l-4.1 2.6c-.6-.3-1.2-.7-1.7-1l-7.5-4.3-5.1-3-.9-.6c-.1-.1-.2-.1-.3-.2 0 0-.1 0-.1-.1l-.2-.2-.1-.1-.1-.1v-.2-.2c0-.1 0-.1.1-.2 0-.1.1-.1.1-.2.1-.1.2-.3.2-.4.1-.1.2-.3.3-.4 1-1 1.9-2 2.9-3l2.6-2.7.1.4.3.8c.7 1.2 1.3 2.4 2.1 3.6.8 1.3 1.7 2.7 2.6 4 .4.6.9 1.2 1.3 1.8.4.5.8 1 1.3 1.5.4.4.8.8 1.3 1.1.2.2.5.3.7.5.1.1.2.1.4.2.1.1.2.1.4.1.1 0 .2.1.4.1.1 0 .2 0 .3.1h.6c.1 0 .2 0 .3-.1.1 0 .2 0 .2-.1.1 0 .1-.1.2-.1s.1-.1.2-.1l.3-.3c.1-.1.2-.2.2-.3.1-.1.2-.2.2-.4.1-.2.2-.3.3-.5.1-.2.2-.4.2-.6.1-.4.3-.8.4-1.2.1-.5.3-1.1.3-1.7l.3-3.3c.8.4 1.6.7 2.3 1.1.7.4 1.4.8 2.2 1.3.1 0 .2.1.2.2l.3.3c.1.1.1.1.1.2s.1.1.1.2 0 .1.1.2v.1l.1.2z" fill="#eac102"/>
</symbol><symbol id="icon-autodesk-heart" viewBox="0 0 55 57.2">
    <style>
        .st0{fill:none;stroke:#231f20;stroke-width:2;stroke-linejoin:round;stroke-miterlimit:10}
    </style>
    <path class="st0" d="M27.5 56.2S54 35.7 54 16.3 30.5-4.6 27.5 14.8C24.5-4.6 1-3.1 1 17.8s26.5 38.4 26.5 38.4z"/>
</symbol><symbol id="icon-autodesk-mail" viewBox="0 0 60 60">
    <style>
        .st0{fill:none;stroke:#231f20;stroke-width:2;stroke-linecap:round;stroke-miterlimit:10}
    </style>
    <circle class="st0" cx="30" cy="30" r="11.3"/>
    <path class="st0" d="M46.4 54c-4.7 3.2-10.3 5-16.4 5C14 59 1 46 1 30S14 1 30 1s29 13 29 29v2.5c0 4.9-4 8.8-8.8 8.8-4.9 0-8.8-4-8.8-8.8V30"/>
</symbol><symbol id="icon-autodesk-message" viewBox="0 0 60 50">
    <style>
        .st0{fill:none;stroke:#231f20;stroke-width:2;stroke-linecap:round;stroke-linejoin:round;stroke-miterlimit:10}
    </style>
    <path class="st0" d="M59 39H28.7L17 49V39H1V1h58z"/>
    <path class="st0" d="M13.6 11h22.7"/>
    <path class="st0" d="M13.6 19.2h32.8"/>
    <path class="st0" d="M13.6 27h32.8"/>
</symbol><symbol id="icon-bloomberg-chat" viewBox="0 0 60 59">
    <style>
        .st0{fill:none;stroke:#231f20;stroke-width:2;stroke-linejoin:round;stroke-miterlimit:10}
    </style>
    <path class="st0" d="M19 36c-1.2-.2-2.8-.6-4-1L2 40l5-9c-4-3.2-6-7.6-6-12.5C1 8.8 10.6 1 22.4 1c11.8 0 21.4 7.8 21.4 17.5"/>
    <path class="st0" d="M23.7 40.1c0 10.8 13 19 24.3 13.9l10 4-4-7.8c3.3-2.6 5-6.1 5-10.1 0-8-7.9-15.1-17.7-15.1-9.7 0-17.6 7.1-17.6 15.1z"/>
</symbol><symbol id="icon-bloomberg-fly" viewBox="0 0 60.3 55">
    <style>
        .st0{fill:none;stroke:#231f20;stroke-width:2;stroke-linejoin:round;stroke-miterlimit:10}
    </style>
    <path class="st0" d="M59.3 1L1 25l22.3 9z"/>
    <path class="st0" d="M59.3 1L48.9 47.7 23.3 34z"/>
    <path class="st0" d="M23.3 34v20l9.1-15.1"/>
</symbol><symbol id="icon-bloomberg-mail" viewBox="0 0 60 60">
    <style>
        .st0{fill:none;stroke:#231f20;stroke-width:2;stroke-linecap:round;stroke-miterlimit:10}
    </style>
    <circle class="st0" cx="30" cy="30" r="11.3"/>
    <path class="st0" d="M46.4 54c-4.7 3.2-10.3 5-16.4 5C14 59 1 46 1 30S14 1 30 1s29 13 29 29v2.5c0 4.9-4 8.8-8.8 8.8-4.9 0-8.8-4-8.8-8.8V30"/>
</symbol><symbol id="icon-build" viewBox="0 0 26 27">
    <style>
        .st0{fill:none;stroke:#000;stroke-width:2;stroke-linecap:round;stroke-linejoin:round;stroke-miterlimit:10}
    </style>
    <ellipse class="st0" cx="13" cy="6" rx="12" ry="5"/>
    <path class="st0" d="M25 11c0 2.8-5.4 5-12 5S1 13.8 1 11"/>
    <path class="st0" d="M25 16c0 2.8-5.4 5-12 5S1 18.8 1 16"/>
    <path class="st0" d="M1 6v15c0 2.8 5.4 5 12 5s12-2.2 12-5V6"/>
</symbol><symbol id="icon-close-modal" viewBox="0 0 31 31">
    <style>
        .st0{fill:none;stroke:#231f20;stroke-width:2;stroke-linecap:round;stroke-linejoin:round;stroke-miterlimit:10}
    </style>
    <path class="st0" d="M30 1L1 30"/>
    <path class="st0" d="M30 30L1 1"/>
</symbol><symbol id="icon-control" viewBox="0 0 31 31">
    <style>
        .st0{fill:none;stroke:#231f20;stroke-width:2;stroke-linecap:round;stroke-linejoin:round;stroke-miterlimit:10}
    </style>
    <path class="st0" d="M25.9 17H30v-4h-4.1c-.3.5-.7-2.1-1.3-3.1L27.5 7 24 3.5l-2.9 2.9c-.9-.6-2.6-1-3.1-1.3V1h-5v4.1c-.5.3-2.1.7-3.1 1.3L7 3.5 3.5 7l2.9 2.9c-.6.9-1 2.6-1.3 3.1H1v4h4.1c.3 1.5.7 3.1 1.3 4.1L3.5 24 7 27.5l2.9-2.9c.9.6 2.6 1 3.1 1.3V30h5v-4.1c.5-.3 2.1-.7 3.1-1.3l2.9 2.9 3.6-3.6-2.9-2.9c.5-.9.9-1.5 1.2-4z"/>
    <circle class="st0" cx="15.5" cy="15.5" r="5.5"/>
</symbol><symbol id="icon-google-man" viewBox="0 0 60 60">
    <style>
        .st0{fill:none;stroke:#231f20;stroke-width:2;stroke-linejoin:round;stroke-miterlimit:10}
    </style>
    <path class="st0" d="M30 59H1s.2-7.7 2.7-11.5c2-3 8.9-5.1 15.2-7.6"/>
    <path class="st0" d="M30 59h29s.2-7.7-2.4-11.5c-2-3-9-5.1-15.3-7.6"/>
    <path class="st0" d="M37 39v-8s3.2-2.4 3.2-7.4c1.3 0 2.6-5 0-6.3 0-.7 3.4-7.1 2.5-11.3C41.4-.3 23.8-.3 22.5 4.7c-7.6 0-2.5 11.6-2.5 12.6-2.5 1.3-1.3 6.3-.1 6.3 0 5 3 7.4 3 7.4v8"/>
    <path class="st0" d="M30 49c-3.8 0-6.6 10-6.6 10H36s-2.2-10-6-10z"/>
    <path class="st0" d="M30 41c-1.8 0-5 0-7-2v-2h-.9c-1.9.9-3.9 3.3-4.6 5.2L15 50l15-9z"/>
    <path class="st0" d="M30 41c1.8 0 5 0 7-2v-2h1c1.9.9 4 3.3 4.6 5.2l2.6 7.8L30 41z"/>
    <path class="st0" d="M26 43.4V45c0 2.1 1.9 4 4 4s4-1.9 4-4v-1.6"/>
</symbol><symbol id="icon-google-phone" viewBox="0 0 36 60">
    <style>
        .st0{fill:none;stroke:#000;stroke-width:2;stroke-linecap:round;stroke-miterlimit:10}
    </style>
    <path class="st0" d="M35 54c0 2.8-2.3 5-5 5H6c-2.8 0-5-2.3-5-5V6c0-2.8 2.3-5 5-5h24c2.8 0 5 2.3 5 5v48z"/>
    <path class="st0" d="M1 11h34"/>
    <path class="st0" d="M1 49h34"/>
    <path class="st0" d="M11 7h14"/>
    <circle class="st0" cx="18" cy="54" r="2"/>
</symbol><symbol id="icon-google-secondman" viewBox="0 0 60 60">
    <style>
        .st0{fill:none;stroke:#231f20;stroke-width:2;stroke-linejoin:round;stroke-miterlimit:10}
    </style>
    <path class="st0" d="M30 59h29s0-5.2-2.5-10.2c-1.9-3.8-9.4-6-19.5-9.8v-7.6s3.1-2.8 3.1-7.9c1.3 0 2.5-5 0-6.3 0-.7 3.4-7.1 2.5-11.3C41.3-.4 23.7-.4 22.4 4.6c-7.6 0-2.5 11.6-2.5 12.6-2.5 1.3-1.3 6.3 0 6.3 0 5 3.1 7.4 3.1 7.4v8c-10.1 3.8-17.6 6-19.5 9.8C1 53.8 1 59 1 59h29z"/>
</symbol><symbol id="icon-philips-bigmail" viewBox="0 0 60 60">
    <style>
        .st0{fill:none;stroke:#231f20;stroke-width:2;stroke-linecap:round;stroke-linejoin:round;stroke-miterlimit:10}
    </style>
    <path class="st0" d="M49 22l10 6.7v26.5c0 2.1-1.7 3.8-3.8 3.8H4.8C2.7 59 1 57.3 1 55.2V28.7L11 22"/>
    <path class="st0" d="M8 52l13-11h18l13 11"/>
    <path class="st0" d="M59 28.7L43.9 38.8"/>
    <path class="st0" d="M1 28.7l15.1 10.1"/>
    <path class="st0" d="M49 35.4V1H11v34.4"/>
    <path class="st0" d="M19 9h5"/>
    <path class="st0" d="M24 15h17"/>
    <path class="st0" d="M19 23h22"/>
    <path class="st0" d="M19 31h22"/>
</symbol><symbol id="icon-philips-camera" viewBox="0 0 60 46">
    <style>
        .st0{fill:none;stroke:#231f20;stroke-width:2;stroke-miterlimit:10}
    </style>
    <path class="st0" d="M6 9l.1-2c0-1.3 1.6-3 2.9-3h2c1.4 0 2.6 1.7 2.6 3v2"/>
    <path class="st0" d="M49 9l-2.6-4.5C45.5 3.2 44.2 2 42.6 1H30c-1.6 1-2.9 2.2-3.8 3.5L22 9H6c-3.8 0-5 2.3-5 4.9v26.2c0 2.6 1.3 4.8 5.2 4.9h47.6c3.9-.1 5.2-2.3 5.2-4.9V13c0-2.6-1.2-4-5.1-4H49z"/>
    <circle class="st0" cx="36" cy="26" r="14"/>
    <circle class="st0" cx="36" cy="26" r="8"/>
    <circle class="st0" cx="9" cy="19" r="4"/>
</symbol><symbol id="icon-philips-illustr" viewBox="0 0 55.1 56.1">
    <style>
        .st0{stroke-linejoin:round}.st0,.st1,.st2{fill:none;stroke:#231f20;stroke-width:2;stroke-miterlimit:10}.st2{stroke-linecap:round}
    </style>
    <path class="st0" d="M36 37l-7.2-18.5-6.3 13.8-6.3-7.5L9 37"/>
    <path class="st1" d="M45 45H1V1h44z"/>
    <path class="st2" d="M49 16.9l5 .5L50.6 55l-37.7-3.4"/>
    <path class="st1" d="M1 37h44"/>
    <circle class="st0" cx="12" cy="13" r="4"/>
</symbol><symbol id="icon-philips-illustrsecond" viewBox="0 0 60 60">
    <style>
        .st0,.st1{fill:none;stroke:#231f20;stroke-width:2;stroke-miterlimit:10}.st1{stroke-linejoin:round}
    </style>
    <path class="st0" d="M1 1h58v58H1z"/>
    <path class="st0" d="M59 45H1"/>
    <path class="st0" d="M23.7 8.6c-3.1 0-5.7 2.3-6.2 5.3-.4-.2-.9-.3-1.4-.3-2.1 0-3.8 1.7-3.8 3.8 0 2.1 1.7 3.8 3.8 3.6h7.6c3.5.2 6.3-2.6 6.3-6.1 0-3.5-2.8-6.3-6.3-6.3z"/>
    <path class="st1" d="M8 45s5.6-13.7 11.9-13.7 11.3 7.6 11.3 7.6l7.6-13c.8-1.3 2.1-2.1 3.7-2.1s3.1.9 3.8 2.3L56 45"/>
</symbol><symbol id="icon-philips-mail" viewBox="0 0 60 54">
    <style>
        .st0{fill:none;stroke:#231f20;stroke-width:2;stroke-linecap:round;stroke-linejoin:round;stroke-miterlimit:10}
    </style>
    <path class="st0" d="M59 49c.1 2.8-1.7 4-3.8 4H4.8C2.7 53 1 51.1 1 49V21L30 1l29 20v28z"/>
    <path class="st0" d="M9 44l12-9h18l12 9"/>
    <path class="st0" d="M59 21L44 32"/>
    <path class="st0" d="M1 21l16 11"/>
</symbol><symbol id="icon-philips-openmail" viewBox="0 0 60 40">
    <style>
        .st0{fill:none;stroke:#231f20;stroke-width:2;stroke-linecap:round;stroke-linejoin:round;stroke-miterlimit:10}
    </style>
    <path class="st0" d="M59 35c0 2.1-1.9 4-4 4H5c-2.1 0-4-1.9-4-4V5c0-2.1 1.9-4 4-4h50c2.1 0 4 1.9 4 4v30z"/>
    <path class="st0" d="M51 11L30 25 9 11"/>
    <path class="st0" d="M9 30l9-6"/>
    <path class="st0" d="M51 30l-9-6"/>
</symbol><symbol id="icon-polls" viewBox="0 0 30 20">
    <style>
        .st0{fill:none;stroke:#000;stroke-linecap:round;stroke-linejoin:round;stroke-miterlimit:10}
    </style>
    <path class="st0" d="M.5 19.5h29"/>
    <path class="st0" d="M2.5 13.5h4v6h-4z"/>
    <path class="st0" d="M9.5 6.5h4v13h-4z"/>
    <path class="st0" d="M16.5 9.5h4v10h-4z"/>
    <path class="st0" d="M23.5.5h4v19h-4z"/>
</symbol><symbol id="icon-share" viewBox="0 0 31 26">
    <style>
        .st0{fill:none;stroke:#231f20;stroke-width:2;stroke-linecap:round;stroke-linejoin:round;stroke-miterlimit:10}
    </style>
    <path class="st0" d="M14.9 25c-3.1-1.5-4.9-5-4.9-8.5V5.8"/>
    <path class="st0" d="M30 11.7c0 1-1 1.7-2 1.7h-1v-5h1c1 0 2 1 2 2v1.3z"/>
    <path class="st0" d="M6 6H4.5C2.4 6 1 7.9 1 10v2.5c0 2 1.4 3.5 3.5 3.5H6c11.3 0 15.9 2.7 21 5.2V1c-5.1 2.5-9.7 5-21 5z"/>
</symbol></svg>