<?xml version="1.0" encoding="utf-8"?>
<!-- Generator: Adobe Illustrator 21.0.1, SVG Export Plug-In . SVG Version: 6.00 Build 0)  -->
<svg version="1.1" id="Слой_1" xmlns="http://www.w3.org/2000/svg" xmlns:xlink="http://www.w3.org/1999/xlink" x="0px" y="0px"
	 viewBox="0 0 187.1 46.7" style="enable-background:new 0 0 187.1 46.7;" xml:space="preserve">
<path style="fill:#2D2A6E;" d="M6,37.2L9,28.8l2.9,8.4H6L6,37.2z M15,45.6h2.8l-7.3-20.1H7.7L0,45.6h2.9l2.3-6.2h7.7L15,45.6
	L15,45.6z"/>
<path style="fill:#2D2A6E;" d="M23.9,38.7c-2.6-0.6-5.3-1.2-5.3-4.3c0-2.8,2.3-4.5,5.9-4.5c2.3,0,4.5,0.9,5.6,2.9l-2.4,1
	c-0.2-0.6-1.4-2-3.5-2c-2,0-3,1.2-3,2.2c0,1.5,1.9,2.1,3.6,2.4c3.4,0.7,6.3,1.5,6.3,4.7c0,2.5-2.2,4.8-6.4,4.8c-3.1,0-5.3-1-6.4-3.2
	l2.7-0.5c0.7,1.2,1.9,1.7,3.8,1.7c2.3,0,3.6-0.9,3.6-2.5C28.4,39.7,26.2,39.2,23.9,38.7L23.9,38.7z"/>
<path style="fill:#2D2A6E;" d="M36.7,30.3h2.8v2.1h-2.8v8.7c0,1.8,0,2.6,1.1,2.6c0.5,0,1.2-0.2,1.7-0.4v2.1C39,45.5,38,45.7,37,45.7
	c-3,0-3-1.4-2.9-3.4v-9.9h-2.4v-2.1h2.4v-3.7l2.7-1.1V30.3L36.7,30.3z"/>
<path style="fill:#2D2A6E;" d="M44.4,30.3v2.7c1.5-2.9,4.2-3,5.2-3v2.7c-2.5,0-3.8,0.5-4.6,1.9c-0.7,1.1-0.6,2.7-0.6,4v7h-2.6V30.3
	H44.4L44.4,30.3z"/>
<polygon style="fill:#2D2A6E;" points="79.3,25.5 79.3,28 67.9,43.2 79.6,43.2 79.6,45.6 64.8,45.6 64.8,43 76.3,28 64.8,28 
	64.8,25.5 "/>
<path style="fill:#2D2A6E;" d="M98.3,30.4v2.2c1.4-2.5,3.9-2.7,4.8-2.7c1.9,0,4.3,1,5,3.5c0.3,0.9,0.3,1.8,0.3,3.1v9.1h-2.6V37
	c0-1.6,0-2-0.2-2.5c-0.5-1.5-1.9-2.1-3.3-2.1c-1.1,0-2.1,0.4-2.9,1.2c-1.1,1.1-1.1,2.3-1.1,3.4v8.7h-2.6V30.4H98.3L98.3,30.4z"/>
<path style="fill:#2D2A6E;" d="M137.9,42.9c-1,1.5-2.7,3-5.8,3c-5.4,0-7.5-4.2-7.5-7.9c0-4.3,2.4-8.3,7.2-8.3c1.9,0,4.6,0.6,6.1,3
	l-2.4,1c-0.5-1-1.4-2.2-3.6-2.2c-4.2,0-4.5,4.8-4.5,6.2c0,5,2.9,6.1,4.6,6.1c2,0,3-1,3.5-2L137.9,42.9L137.9,42.9z"/>
<path style="fill:#2D2A6E;" d="M83.3,36.4h8.1c-0.2-4-2.5-4.7-4.1-4.7C85.2,31.7,83.6,33.3,83.3,36.4L83.3,36.4z M93.5,42.7
	c-0.9,1.5-2.6,3.2-5.9,3.2c-4.5,0-7.1-3.1-7.1-8.2c0-5.8,3.8-8,7-8c2.8,0,5.5,1.6,6.4,5.4c0.3,1.3,0.3,2.5,0.3,3.1h-11
	c-0.1,2.6,1,5.8,4.6,5.7c1.5,0,2.5-0.7,3.2-1.7L93.5,42.7L93.5,42.7z"/>
<path style="fill:#2D2A6E;" d="M112.5,36.4h8.1c-0.2-4-2.5-4.7-4.1-4.7C114.4,31.7,112.8,33.3,112.5,36.4L112.5,36.4z M122.8,42.7
	c-0.9,1.5-2.6,3.2-5.9,3.2c-4.5,0-7.1-3.1-7.1-8.2c0-5.8,3.8-8,7-8c2.8,0,5.5,1.6,6.4,5.4c0.3,1.3,0.3,2.5,0.3,3.1h-11
	c-0.1,2.6,1,5.8,4.6,5.7c1.5,0,2.5-0.7,3.2-1.7L122.8,42.7L122.8,42.7z"/>
<path style="fill:#2D2A6E;" d="M152,45.6l-2.7,0c0,0-0.2-1.1-0.3-2.3c-0.8,0.8-2.2,2.5-5.1,2.5c-3,0-5.2-1.8-5.2-4.4
	c0-0.8,0.2-1.6,0.7-2.3c0.9-1.3,2.5-2.3,7.1-2.7l2.4-0.2V36c0-1.6,0-4.2-3.4-4.2c-2.1,0-2.9,1-3.1,2l-2.4-1c0-0.1,0.1-0.2,0.1-0.3
	c0.9-1.7,2.7-2.7,5.3-2.7c1.4,0,3.3,0.4,4.5,1.3c1.7,1.3,1.7,3.8,1.7,3.8l0.1,7.9C151.5,42.7,151.6,45,152,45.6L152,45.6z
	 M148.4,41.4c0.4-0.8,0.4-1.2,0.4-3.4c-1,0.2-2.4,0.4-4,0.7c-2.8,0.6-3.3,1.7-3.3,2.8c0,1.2,1,2.3,2.9,2.3
	C146.2,43.7,147.7,43,148.4,41.4L148.4,41.4z"/>
<path style="fill:#2D2A6E;" d="M63,45.6l-2.7,0c0,0-0.2-1.1-0.3-2.3c-0.8,0.8-2.2,2.5-5.1,2.5c-3,0-5.2-1.8-5.2-4.4
	c0-0.8,0.2-1.6,0.7-2.3c0.9-1.3,2.5-2.3,7.1-2.7l2.4-0.2V36c0-1.6,0-4.2-3.4-4.2c-2.1,0-2.9,1-3.1,2l-2.4-1c0-0.1,0.1-0.2,0.1-0.3
	c0.9-1.7,2.7-2.7,5.3-2.7c1.4,0,3.3,0.4,4.5,1.3c1.7,1.3,1.7,3.8,1.7,3.8l0.1,7.9C62.6,42.7,62.7,45,63,45.6L63,45.6z M59.5,41.4
	c0.4-0.8,0.4-1.2,0.4-3.4c-1,0.2-2.4,0.4-4,0.7c-2.8,0.6-3.3,1.7-3.3,2.8c0,1.2,1,2.3,2.9,2.3C57.2,43.7,58.7,43,59.5,41.4
	L59.5,41.4z"/>
<path style="fill:#EAC102;" d="M187.1,24.4c0-0.1,0-0.2,0-0.3c0-0.2-0.1-0.4-0.2-0.5c-0.1-0.2-0.2-0.4-0.3-0.5
	c-0.1-0.2-0.2-0.4-0.4-0.6c-0.1-0.1-0.2-0.2-0.3-0.3c-0.1-0.1-0.2-0.2-0.3-0.3c-0.3-0.2-0.5-0.4-0.8-0.6c-0.6-0.4-1.2-0.8-1.9-1.1
	c-0.8-0.4-1.6-0.8-2.4-1.1l-5.6-2c0-1.1,0-2.1,0-3.2c0-1.6-0.1-3.2-0.2-4.8c-0.1-1.1-0.2-2.2-0.4-3.3c-0.1-0.9-0.3-1.7-0.5-2.5
	c0-0.2-0.1-0.4-0.2-0.6c-0.1-0.2-0.1-0.3-0.2-0.5c-0.1-0.1-0.1-0.3-0.2-0.4c-0.1-0.1-0.1-0.3-0.2-0.4c-0.1-0.1-0.1-0.2-0.2-0.3
	c-0.1-0.1-0.1-0.2-0.2-0.3c-0.1-0.1-0.2-0.2-0.2-0.2c-0.1-0.1-0.2-0.1-0.2-0.2c-0.1-0.1-0.2-0.1-0.2-0.1c-0.1,0-0.1-0.1-0.2-0.1
	c-0.1-0.1-0.3-0.1-0.4-0.1c-0.1,0-0.2-0.1-0.4-0.1c-0.1,0-0.2,0-0.3,0c-0.2,0-0.3,0-0.5,0c-0.2,0-0.3,0-0.5,0.1
	c-0.2,0-0.3,0.1-0.5,0.1c-0.2,0.1-0.4,0.1-0.5,0.2c-0.2,0.1-0.4,0.2-0.5,0.3c-0.2,0.1-0.4,0.2-0.6,0.4c-0.3,0.2-0.6,0.5-0.9,0.7
	c-1.2,1.1-2.3,2.2-3.5,3.4c-0.6,0.6-1.2,1.2-1.7,1.9c-2.2,2.6-4.3,5.3-6.4,7.9c-0.9,1.2-1.8,2.5-2.6,3.7c-0.2,0.3-0.4,0.6-0.6,1
	c-0.3,0.6-0.6,1.2-0.9,1.8c-0.1,0.2-0.1,0.3-0.2,0.5c-0.1,0.2-0.1,0.3-0.1,0.5c0,0.1-0.1,0.3-0.1,0.5c0,0.1,0,0.3,0,0.4
	c0,0.1,0,0.1,0,0.2c0,0.1,0.1,0.1,0.1,0.2c0,0.1,0.1,0.1,0.1,0.2c0.1,0.1,0.1,0.1,0.2,0.2c0.1,0.1,0.3,0.3,0.4,0.4
	c0.2,0.1,0.3,0.3,0.5,0.4c0.3,0.2,0.6,0.4,0.9,0.5c0.1,0.1,0.3,0.1,0.4,0.2c0,0-0.1,0-0.1-0.1c0,0,0,0,0,0c0,0,0,0,0,0
	c0.1,0,0.1,0.1,0.2,0.1c1.9,1,3.7,1.9,5.6,2.9c1.9,1,3.7,2,5.5,3l4.1,2.3c-1.4,1.1-2.9,2.1-4.3,3.2c-0.5,0.4-1,0.9-1.5,1.4
	c-0.4,0.4-0.8,0.8-1.1,1.2c-0.3,0.3-0.5,0.7-0.8,1.1c-0.2,0.3-0.4,0.6-0.5,0.9c-0.1,0.2-0.2,0.5-0.3,0.7c-0.1,0.2-0.1,0.4-0.1,0.5
	c0,0.1,0,0.2,0,0.3c0,0,0,0.1,0,0.1c0,0.1,0,0.2,0,0.3c0,0.1,0,0.2,0,0.3c0,0.1,0,0.2,0.1,0.3c0,0.1,0.1,0.2,0.1,0.2
	c0,0.1,0.1,0.2,0.1,0.2c0,0.1,0.1,0.1,0.1,0.2c0.1,0.1,0.2,0.3,0.3,0.4s0.2,0.2,0.4,0.3c0.1,0.1,0.3,0.2,0.4,0.3
	c0.1,0.1,0.3,0.1,0.4,0.2c0.2,0.1,0.3,0.1,0.5,0.2c0.6,0.1,1.2,0.2,1.7,0.3c0.3,0,0.6,0.1,0.9,0c1-0.1,2-0.2,3-0.3
	c1.2-0.2,2.3-0.4,3.4-0.7c1.3-0.3,2.7-0.6,4-1c0.9-0.2,1.9-0.5,2.8-0.8c0.7-0.3,1.4-0.6,2.1-0.9c0.2-0.1,0.3-0.2,0.5-0.2
	c0.1-0.1,0.3-0.2,0.4-0.3c0.1-0.1,0.2-0.2,0.3-0.3c0.1-0.1,0.2-0.2,0.2-0.3c0.1-0.1,0.1-0.2,0.1-0.3c0-0.1,0.1-0.2,0.1-0.3
	c0-0.1,0-0.2,0-0.2c0-0.1,0-0.2,0-0.2c0-0.1,0-0.2-0.1-0.2c0-0.1-0.1-0.1-0.1-0.2s-0.1-0.1-0.1-0.2s-0.1-0.1-0.1-0.2
	c-0.1-0.1-0.2-0.2-0.3-0.3c-0.1-0.1-0.2-0.2-0.3-0.2c-0.1-0.1-0.2-0.1-0.3-0.2c-0.7-0.4-1.5-0.9-2.2-1.3l-3.1-1.8
	c1.9-1.3,3.8-2.5,5.6-3.8c0.8-0.6,1.6-1.1,2.3-1.7c0.6-0.5,1.3-1.1,1.9-1.7c0.3-0.3,0.5-0.6,0.8-0.9c0.1-0.1,0.2-0.3,0.3-0.4
	c0.1-0.1,0.2-0.3,0.3-0.4c0.2-0.5,0.5-1,0.7-1.5c0.1-0.2,0.1-0.4,0.2-0.6c0-0.1,0-0.2,0-0.3c0-0.1,0-0.2,0-0.3
	C187.1,24.6,187.1,24.5,187.1,24.4L187.1,24.4z M164,11.8c1-1.1,2.1-2.2,3.2-3.2c0.2-0.2,0.4-0.4,0.6-0.6c0.1-0.1,0.1-0.1,0.2-0.2
	c0.1,0,0.1-0.1,0.2-0.1c0,0,0.1-0.1,0.1-0.1c0.1,0,0.1,0,0.2-0.1c0.1,0,0.1,0,0.2,0c0,0,0.1,0,0.1,0c0,0,0.1,0,0.1,0
	c0,0,0.1,0,0.1,0.1c0,0,0.1,0.1,0.1,0.1c0,0,0.1,0.1,0.1,0.1c0,0,0.1,0.1,0.1,0.1c0.1,0.1,0.1,0.3,0.1,0.4c0,0.2,0.1,0.4,0.1,0.6
	c0.1,0.5,0.1,1,0.2,1.5c0.1,0.6,0.1,1.3,0.2,1.9l0.3,3.4l-3.8-0.9l-3.5-0.6l-0.9-0.1l-0.3,0C162.4,13.5,163.2,12.6,164,11.8
	L164,11.8z M161.6,16.5L161.6,16.5L161.6,16.5L161.6,16.5l0.1,0l0.1,0l0.3,0.1l0.5,0.2c1.2,0.5,2.4,1,3.6,1.5c0.8,0.3,1.6,0.7,2.4,1
	l1.6,0.7l0.1,0.1c0.1,1.3,0.2,2.5,0.3,3.8c0.1,1,0.1,2,0.1,2.9c0,0.1,0,0.2,0,0.4c0,0.1,0,0.1,0,0.2c0,0.1,0,0.1,0,0.2
	c0,0.1,0,0.1-0.1,0.2c0,0.1-0.1,0.1-0.1,0.2c0,0-0.1,0-0.1,0.1c0,0-0.1,0-0.1,0.1c0,0-0.1,0-0.1,0c0,0-0.1,0-0.1,0
	c-0.1,0-0.1,0-0.2,0c-0.1,0-0.1,0-0.2,0c-0.1,0-0.1,0-0.2,0c-0.1,0-0.1,0-0.2-0.1c-0.1-0.1-0.2-0.1-0.4-0.2
	c-0.1-0.1-0.3-0.2-0.4-0.3c-0.1-0.1-0.3-0.2-0.4-0.3c-0.1-0.1-0.3-0.2-0.4-0.4c-0.3-0.3-0.5-0.6-0.8-0.9c-0.5-0.6-0.9-1.1-1.3-1.7
	c-0.6-0.8-1.1-1.6-1.7-2.5c-0.3-0.5-0.7-1-0.9-1.5L162,18l-0.3-0.8l-0.1-0.2l0-0.2L161.6,16.5L161.6,16.5L161.6,16.5z M175.1,38
	c0.3,0.2,0.7,0.4,1,0.6c0.4,0.3,0.8,0.5,1.2,0.8c0.3,0.2,0.6,0.4,0.8,0.7c0.1,0.1,0.2,0.2,0.3,0.3c0.1,0.1,0.2,0.2,0.2,0.3
	c0,0,0,0,0,0c0,0,0,0,0,0.1c0,0,0,0,0,0c0,0,0,0,0,0c0,0,0,0-0.1,0c0,0-0.1,0-0.1,0c-1.6,0.1-3.2,0.2-4.8,0.4l-6.3,0.5l-0.2,0
	l0.1-0.1l0.4-0.3c0.8-0.6,1.6-1.2,2.4-1.8l3.5-2.4C174.2,37.4,174.7,37.7,175.1,38L175.1,38z M179.9,25.6c0,0.1,0,0.1-0.1,0.2
	c0,0.1-0.1,0.1-0.1,0.2c-0.1,0.1-0.2,0.3-0.3,0.4c-0.3,0.2-0.5,0.5-0.8,0.7c-1,0.7-2,1.4-3,2.1c-0.7,0.5-1.4,0.9-2.1,1.4l-4.1,2.6
	c-0.6-0.3-1.2-0.7-1.7-1l-7.5-4.3c-1.7-1-3.4-2-5.1-3c-0.3-0.2-0.6-0.4-0.9-0.6c-0.1-0.1-0.2-0.1-0.3-0.2c0,0-0.1,0-0.1-0.1
	c-0.1-0.1-0.1-0.1-0.2-0.2c0,0-0.1-0.1-0.1-0.1c0,0-0.1-0.1-0.1-0.1c0-0.1,0-0.1,0-0.2c0-0.1,0-0.1,0-0.2c0-0.1,0-0.1,0.1-0.2
	c0-0.1,0.1-0.1,0.1-0.2c0.1-0.1,0.2-0.3,0.2-0.4c0.1-0.1,0.2-0.3,0.3-0.4c1-1,1.9-2,2.9-3l2.6-2.7l0.1,0.4l0.3,0.8l0,0
	c0.7,1.2,1.3,2.4,2.1,3.6c0.8,1.3,1.7,2.7,2.6,4c0.4,0.6,0.9,1.2,1.3,1.8c0.4,0.5,0.8,1,1.3,1.5c0.4,0.4,0.8,0.8,1.3,1.1
	c0.2,0.2,0.5,0.3,0.7,0.5c0.1,0.1,0.2,0.1,0.4,0.2c0.1,0.1,0.2,0.1,0.4,0.1c0.1,0,0.2,0.1,0.4,0.1c0.1,0,0.2,0,0.3,0.1
	c0.1,0,0.2,0,0.3,0c0.1,0,0.2,0,0.3,0c0.1,0,0.2,0,0.3-0.1c0.1,0,0.2,0,0.2-0.1c0.1,0,0.1-0.1,0.2-0.1c0.1,0,0.1-0.1,0.2-0.1
	c0.1-0.1,0.2-0.2,0.3-0.3c0.1-0.1,0.2-0.2,0.2-0.3c0.1-0.1,0.2-0.2,0.2-0.4c0.1-0.2,0.2-0.3,0.3-0.5c0.1-0.2,0.2-0.4,0.2-0.6
	c0.1-0.4,0.3-0.8,0.4-1.2c0.1-0.5,0.3-1.1,0.3-1.7l0.3-3.3c0.8,0.4,1.6,0.7,2.3,1.1c0.7,0.4,1.4,0.8,2.2,1.3c0.1,0,0.2,0.1,0.2,0.2
	c0.1,0.1,0.2,0.2,0.3,0.3c0.1,0.1,0.1,0.1,0.1,0.2c0,0.1,0.1,0.1,0.1,0.2c0,0.1,0,0.1,0.1,0.2c0,0,0,0.1,0,0.1
	C179.9,25.6,179.9,25.6,179.9,25.6L179.9,25.6z"/>
</svg>
