<?xml version="1.0" encoding="utf-8"?>
<!-- Generator: Adobe Illustrator 21.0.1, SVG Export Plug-In . SVG Version: 6.00 Build 0)  -->
<svg version="1.1" id="icons" xmlns="http://www.w3.org/2000/svg" xmlns:xlink="http://www.w3.org/1999/xlink" x="0px" y="0px"
	 viewBox="0 0 60 59" style="enable-background:new 0 0 60 59;" xml:space="preserve">
<style type="text/css">
	.st0{fill:none;stroke:#231F20;stroke-width:2;stroke-linejoin:round;stroke-miterlimit:10;}
</style>
<g>
	<path class="st0" d="M19,36c-1.2-0.2-2.8-0.6-4-1L2,40l5-9c-4-3.2-6-7.6-6-12.5C1,8.8,10.6,1,22.4,1c11.8,0,21.4,7.8,21.4,17.5"/>
	<path class="st0" d="M23.7,40.1c0,10.8,13,19,24.3,13.9l10,4l-4-7.8c3.3-2.6,5-6.1,5-10.1c0-8-7.9-15.1-17.7-15.1
		C31.6,25,23.7,32.1,23.7,40.1z"/>
</g>
</svg>
