<?xml version="1.0" encoding="utf-8"?>
<!-- Generator: Adobe Illustrator 21.0.1, SVG Export Plug-In . SVG Version: 6.00 Build 0)  -->
<svg version="1.1" id="icons" xmlns="http://www.w3.org/2000/svg" xmlns:xlink="http://www.w3.org/1999/xlink" x="0px" y="0px"
	 viewBox="0 0 31 31" style="enable-background:new 0 0 31 31;" xml:space="preserve">
<style type="text/css">
	.st0{fill:none;stroke:#231F20;stroke-width:2;stroke-linecap:round;stroke-linejoin:round;stroke-miterlimit:10;}
</style>
<path class="st0" d="M25.9,17H30v-4h-4.1c-0.3,0.5-0.7-2.1-1.3-3.1L27.5,7L24,3.5l-2.9,2.9c-0.9-0.6-2.6-1-3.1-1.3V1h-5v4.1
	c-0.5,0.3-2.1,0.7-3.1,1.3L7,3.5L3.5,7l2.9,2.9c-0.6,0.9-1,2.6-1.3,3.1H1v4h4.1c0.3,1.5,0.7,3.1,1.3,4.1L3.5,24L7,27.5l2.9-2.9
	c0.9,0.6,2.6,1,3.1,1.3V30h5v-4.1c0.5-0.3,2.1-0.7,3.1-1.3l2.9,2.9l3.6-3.6l-2.9-2.9C25.2,20.1,25.6,19.5,25.9,17z"/>
<circle class="st0" cx="15.5" cy="15.5" r="5.5"/>
</svg>
