<?xml version="1.0" encoding="utf-8"?>
<!-- Generator: Adobe Illustrator 21.0.1, SVG Export Plug-In . SVG Version: 6.00 Build 0)  -->
<svg version="1.1" id="icons" xmlns="http://www.w3.org/2000/svg" xmlns:xlink="http://www.w3.org/1999/xlink" x="0px" y="0px"
	 viewBox="0 0 60 60" style="enable-background:new 0 0 60 60;" xml:space="preserve">
<style type="text/css">
	.st0{fill:none;stroke:#231F20;stroke-width:2;stroke-linejoin:round;stroke-miterlimit:10;}
</style>
<g>
	<path class="st0" d="M30,59H1c0,0,0.2-7.7,2.7-11.5c2-3,8.9-5.1,15.2-7.6"/>
	<path class="st0" d="M30,59h29c0,0,0.2-7.7-2.4-11.5c-2-3-9-5.1-15.3-7.6"/>
	<path class="st0" d="M37,39v-8c0,0,3.2-2.4,3.2-7.4c1.3,0,2.6-5,0-6.3c0-0.7,3.4-7.1,2.5-11.3c-1.3-6.3-18.9-6.3-20.2-1.3
		c-7.6,0-2.5,11.6-2.5,12.6c-2.5,1.3-1.3,6.3-0.1,6.3c0,5,3,7.4,3,7.4v8"/>
	<path class="st0" d="M30,49c-3.8,0-6.6,10-6.6,10H36C36,59,33.8,49,30,49z"/>
	<path class="st0" d="M30,41c-1.8,0-5,0-7-2v-2l-0.9,0c-1.9,0.9-3.9,3.3-4.6,5.2L15,50L30,41z"/>
	<path class="st0" d="M30,41c1.8,0,5,0,7-2v-2l1,0c1.9,0.9,4,3.3,4.6,5.2l2.6,7.8L30,41z"/>
	<path class="st0" d="M26,43.4V45c0,2.1,1.9,4,4,4c2.1,0,4-1.9,4-4v-1.6"/>
</g>
</svg>
