<?xml version="1.0" encoding="utf-8"?>
<!-- Generator: Adobe Illustrator 21.0.1, SVG Export Plug-In . SVG Version: 6.00 Build 0)  -->
<svg version="1.1" id="icons" xmlns="http://www.w3.org/2000/svg" xmlns:xlink="http://www.w3.org/1999/xlink" x="0px" y="0px"
	 viewBox="0 0 60 60" style="enable-background:new 0 0 60 60;" xml:space="preserve">
<style type="text/css">
	.st0{fill:none;stroke:#231F20;stroke-width:2;stroke-linejoin:round;stroke-miterlimit:10;}
</style>
<g>
	<path class="st0" d="M30,59h29c0,0,0-5.2-2.5-10.2c-1.9-3.8-9.4-6-19.5-9.8v-7.6c0,0,3.1-2.8,3.1-7.9c1.3,0,2.5-5,0-6.3
		c0-0.7,3.4-7.1,2.5-11.3c-1.3-6.3-18.9-6.3-20.2-1.3c-7.6,0-2.5,11.6-2.5,12.6c-2.5,1.3-1.3,6.3,0,6.3c0,5,3.1,7.4,3.1,7.4v8
		c-10.1,3.8-17.6,6-19.5,9.8C1,53.8,1,59,1,59H30z"/>
</g>
</svg>
