<?xml version="1.0" encoding="utf-8"?>
<!-- Generator: Adobe Illustrator 21.0.1, SVG Export Plug-In . SVG Version: 6.00 Build 0)  -->
<svg version="1.1" id="icons" xmlns="http://www.w3.org/2000/svg" xmlns:xlink="http://www.w3.org/1999/xlink" x="0px" y="0px"
	 viewBox="0 0 60 60" style="enable-background:new 0 0 60 60;" xml:space="preserve">
<style type="text/css">
	.st0{fill:none;stroke:#231F20;stroke-width:2;stroke-miterlimit:10;}
	.st1{fill:none;stroke:#231F20;stroke-width:2;stroke-linejoin:round;stroke-miterlimit:10;}
</style>
<g>
	<rect x="1" y="1" class="st0" width="58" height="58"/>
	<line class="st0" x1="59" y1="45" x2="1" y2="45"/>
	<path class="st0" d="M23.7,8.6c-3.1,0-5.7,2.3-6.2,5.3c-0.4-0.2-0.9-0.3-1.4-0.3c-2.1,0-3.8,1.7-3.8,3.8c0,2.1,1.7,3.8,3.8,3.6h7.6
		c3.5,0.2,6.3-2.6,6.3-6.1C30,11.4,27.2,8.6,23.7,8.6z"/>
	<path class="st1" d="M8,45c0,0,5.6-13.7,11.9-13.7s11.3,7.6,11.3,7.6l7.6-13c0.8-1.3,2.1-2.1,3.7-2.1c1.6,0,3.1,0.9,3.8,2.3L56,45"
		/>
</g>
</svg>
