<?xml version="1.0" encoding="utf-8"?>
<!-- Generator: Adobe Illustrator 21.0.1, SVG Export Plug-In . SVG Version: 6.00 Build 0)  -->
<svg version="1.1" id="icons" xmlns="http://www.w3.org/2000/svg" xmlns:xlink="http://www.w3.org/1999/xlink" x="0px" y="0px"
	 viewBox="0 0 60 60" style="enable-background:new 0 0 60 60;" xml:space="preserve">
<style type="text/css">
	.st0{fill:none;stroke:#231F20;stroke-width:2;stroke-linecap:round;stroke-linejoin:round;stroke-miterlimit:10;}
</style>
<g>
	<path class="st0" d="M49,22l10,6.7v26.5c0,2.1-1.7,3.8-3.8,3.8H4.8C2.7,59,1,57.3,1,55.2V28.7L11,22"/>
	<polyline class="st0" points="8,52 21,41 39,41 52,52 	"/>
	<line class="st0" x1="59" y1="28.7" x2="43.9" y2="38.8"/>
	<line class="st0" x1="1" y1="28.7" x2="16.1" y2="38.8"/>
	<polyline class="st0" points="49,35.4 49,1 11,1 11,35.4 	"/>
	<line class="st0" x1="19" y1="9" x2="24" y2="9"/>
	<line class="st0" x1="24" y1="15" x2="41" y2="15"/>
	<line class="st0" x1="19" y1="23" x2="41" y2="23"/>
	<line class="st0" x1="19" y1="31" x2="41" y2="31"/>
</g>
</svg>
