<?xml version="1.0" encoding="utf-8"?>
<!-- Generator: Adobe Illustrator 21.0.1, SVG Export Plug-In . SVG Version: 6.00 Build 0)  -->
<svg version="1.1" id="Layer_1" xmlns="http://www.w3.org/2000/svg" xmlns:xlink="http://www.w3.org/1999/xlink" x="0px" y="0px"
	 viewBox="0 0 370.4 280.8" style="enable-background:new 0 0 370.4 280.8;" xml:space="preserve">
<g>
	<path d="M364.4,268.8h-6.8V57.2c0-3.3-2.7-6-6-6h-34.4c-3.5-7.6-11.3-12.8-20-12.8s-16.5,5.2-20,12.8h-28.4V12h0.4c3.3,0,6-2.7,6-6
		c0-3.3-2.7-6-6-6H127.6c-3.3,0-6,2.7-6,6c0,3.3,2.7,6,6,6h0.4v90.4H12.4c-3.3,0-6,2.7-6,6c0,3.3,2.7,6,6,6h0.4v154.4H6
		c-3.3,0-6,2.7-6,6c0,3.3,2.7,6,6,6h358.4c3.3,0,6-2.7,6-6C370.4,271.5,367.7,268.8,364.4,268.8L364.4,268.8z M281.5,63.2
		c2.9,0,5.3-2,5.9-4.8c0.9-4.6,5.1-8,9.8-8c4.7,0,8.9,3.4,9.8,8c0.6,2.8,3,4.8,5.9,4.8h32.7v205.6h-96.8V63.2H281.5z M128,114.4v7.2
		H24.8v-7.2H128z M24.8,133.6H128v135.2H24.8V133.6z M140,268.8V12h96.8v256.8H140z M140,268.8"/>
	<path d="M262,248.8h25.6c3.3,0,6-2.7,6-6v-57.6c0-3.3-2.7-6-6-6H262c-3.3,0-6,2.7-6,6v57.6C256,246.1,258.7,248.8,262,248.8
		L262,248.8z M268,236.8v-20h13.6v20H268z M281.6,191.2v13.6H268v-13.6H281.6z M281.6,191.2"/>
	<path d="M306.8,248.8h25.6c3.3,0,6-2.7,6-6v-57.6c0-3.3-2.7-6-6-6h-25.6c-3.3,0-6,2.7-6,6v57.6
		C300.8,246.1,303.5,248.8,306.8,248.8L306.8,248.8z M312.8,236.8v-20h13.6v20H312.8z M326.4,191.2v13.6h-13.6v-13.6H326.4z
		 M326.4,191.2"/>
	<path d="M262,159.2h25.6c3.3,0,6-2.7,6-6v-56c0-4.2-3.4-7.6-7.6-7.6h-22.4c-4.2,0-7.6,3.4-7.6,7.6v56
		C256,156.5,258.7,159.2,262,159.2L262,159.2z M268,147.2v-20h13.6v20H268z M281.6,101.6v13.6H268v-13.6H281.6z M281.6,101.6"/>
	<path d="M306.8,159.2h25.6c3.3,0,6-2.7,6-6v-56c0-4.2-3.4-7.6-7.6-7.6h-22.4c-4.2,0-7.6,3.4-7.6,7.6v56
		C300.8,156.5,303.5,159.2,306.8,159.2L306.8,159.2z M312.8,147.2v-20h13.6v20H312.8z M326.4,101.6v13.6h-13.6v-13.6H326.4z
		 M326.4,101.6"/>
	<path d="M178.8,185.6h-25.6c-3.3,0-6,2.7-6,6v51.2c0,3.3,2.7,6,6,6h25.6c3.3,0,6-2.7,6-6v-51.2
		C184.8,188.3,182.1,185.6,178.8,185.6L178.8,185.6z M172.8,197.6v7.2h-13.6v-7.2H172.8z M159.2,236.8v-20h13.6v20H159.2z
		 M159.2,236.8"/>
	<path d="M223.6,185.6H198c-3.3,0-6,2.7-6,6v51.2c0,3.3,2.7,6,6,6h25.6c3.3,0,6-2.7,6-6v-51.2C229.6,188.3,226.9,185.6,223.6,185.6
		L223.6,185.6z M217.6,197.6v7.2H204v-7.2H217.6z M204,236.8v-20h13.6v20H204z M204,236.8"/>
	<path d="M178.8,108.8h-25.6c-3.3,0-6,2.7-6,6V166c0,3.3,2.7,6,6,6h25.6c3.3,0,6-2.7,6-6v-51.2C184.8,111.5,182.1,108.8,178.8,108.8
		L178.8,108.8z M172.8,120.8v7.2h-13.6v-7.2H172.8z M159.2,160v-20h13.6v20H159.2z M159.2,160"/>
	<path d="M223.6,108.8H198c-3.3,0-6,2.7-6,6V166c0,3.3,2.7,6,6,6h25.6c3.3,0,6-2.7,6-6v-51.2C229.6,111.5,226.9,108.8,223.6,108.8
		L223.6,108.8z M217.6,120.8v7.2H204v-7.2H217.6z M204,160v-20h13.6v20H204z M204,160"/>
	<path d="M178.8,32h-25.6c-3.3,0-6,2.7-6,6v51.2c0,3.3,2.7,6,6,6h25.6c3.3,0,6-2.7,6-6V38C184.8,34.7,182.1,32,178.8,32L178.8,32z
		 M172.8,44v7.2h-13.6V44H172.8z M159.2,83.2v-20h13.6v20H159.2z M159.2,83.2"/>
	<path d="M223.6,32H198c-3.3,0-6,2.7-6,6v51.2c0,3.3,2.7,6,6,6h25.6c3.3,0,6-2.7,6-6V38C229.6,34.7,226.9,32,223.6,32L223.6,32z
		 M217.6,44v7.2H204V44H217.6z M204,83.2v-20h13.6v20H204z M204,83.2"/>
	<path d="M114.8,147.2H38c-3.3,0-6,2.7-6,6v96c0,3.3,2.7,6,6,6h76.8c3.3,0,6-2.7,6-6v-96C120.8,149.9,118.1,147.2,114.8,147.2
		L114.8,147.2z M44,191.2h26.4v20H44V191.2z M82.4,191.2h26.4v20H82.4V191.2z M108.8,179.2H82.4v-20h26.4V179.2z M70.4,159.2v20H44
		v-20H70.4z M44,223.2h26.4v20H44V223.2z M82.4,243.2v-20h26.4v20H82.4z M82.4,243.2"/>
</g>
</svg>
