<?xml version="1.0" encoding="utf-8"?>
<!-- Generator: Adobe Illustrator 21.0.1, SVG Export Plug-In . SVG Version: 6.00 Build 0)  -->
<svg version="1.1" id="Layer_1" xmlns="http://www.w3.org/2000/svg" xmlns:xlink="http://www.w3.org/1999/xlink" x="0px" y="0px"
	 viewBox="0 0 370.4 319.2" style="enable-background:new 0 0 370.4 319.2;" xml:space="preserve">
<g>
	<path d="M364.4,307.2h-13.2v-70.8c0-3.3-2.7-6-6-6h-6.8v-13.2c0-6.8-5.6-12.4-12.4-12.4h-26v-77.2c0-3.3-2.7-6-6-6h-7.5
		c-2.2-9.1-9.4-16.2-18.5-18.5V63.6c0-3.3-2.7-6-6-6s-6,2.7-6,6v39.5c-9.1,2.2-16.2,9.4-18.5,18.5H236V70c0-2.1-1.1-4.1-3-5.2
		l-73.8-43.1V6c0-3.3-2.7-6-6-6c-3.3,0-6,2.7-6,6v96.4h-38.8c-3.3,0-6,2.7-6,6v72.1l-72.3,18.1c-2.7,0.7-4.5,3.1-4.5,5.8v102.8H6
		c-3.3,0-6,2.7-6,6c0,3.3,2.7,6,6,6h358.4c3.3,0,6-2.7,6-6C370.4,309.9,367.7,307.2,364.4,307.2L364.4,307.2z M274.8,230.4
		c-3.3,0-6,2.7-6,6v38.8H236v-52h45.6v7.2H274.8z M339.2,281.6h-58.4V268h58.4V281.6z M283.2,211.2H236v-52h52v47.2
		C286,207.5,284.3,209.2,283.2,211.2L283.2,211.2z M236,287.2h32.8v20H236V287.2z M280.8,293.6h58.4v13.6h-58.4V293.6z M339.2,256
		h-58.4v-13.6h58.4V256z M326.4,217.2v13.2h-32.8v-13.2c0-0.2,0.2-0.4,0.4-0.4h32C326.2,216.8,326.4,217,326.4,217.2L326.4,217.2z
		 M242.8,133.6c3.3,0,6-2.7,6-6c0-7.3,5.9-13.2,13.2-13.2s13.2,5.9,13.2,13.2c0,3.3,2.7,6,6,6h6.8v13.6h-52v-13.6H242.8z
		 M159.2,35.6L224,73.4v233.8h-13.6V82.8c0-3.3-2.7-6-6-6c-3.3,0-6,2.7-6,6v224.4h-13.6V108.4c0-3.3-2.7-6-6-6h-19.6V35.6z
		 M172.8,242.4V256h-58.4v-13.6H172.8z M114.4,230.4v-13.6h58.4v13.6H114.4z M172.8,179.2h-58.4v-13.6h58.4V179.2z M172.8,191.2
		v13.6h-58.4v-13.6H172.8z M114.4,268h58.4v13.6h-58.4V268z M172.8,153.6h-58.4V140h58.4V153.6z M114.4,293.6h58.4v13.6h-58.4V293.6
		z M172.8,114.4V128h-58.4v-13.6H172.8z M37.6,209.1l64.8-16.2v114.3H88.8v-83.6c0-3.3-2.7-6-6-6c-3.3,0-6,2.7-6,6v83.6H63.2V230
		c0-3.3-2.7-6-6-6c-3.3,0-6,2.7-6,6v77.2H37.6V209.1z M37.6,209.1"/>
</g>
</svg>
