<?xml version="1.0" encoding="utf-8"?>
<!-- Generator: Adobe Illustrator 21.0.1, SVG Export Plug-In . SVG Version: 6.00 Build 0)  -->
<svg version="1.1" id="Layer_1" xmlns="http://www.w3.org/2000/svg" xmlns:xlink="http://www.w3.org/1999/xlink" x="0px" y="0px"
	 viewBox="0 0 293.6 370.4" style="enable-background:new 0 0 293.6 370.4;" xml:space="preserve">
<g>
	<path d="M281.2,57.6h-38.8v-21c7.4-2.5,12.8-9.5,12.8-17.8c0-10.4-8.4-18.8-18.8-18.8H57.2C46.8,0,38.4,8.4,38.4,18.8
		c0,8.3,5.4,15.3,12.8,17.8v21H12.4C5.6,57.6,0,63.2,0,70v25.6c0,38.6,31.4,70,70,70c0.1,0,0.2,0,0.2,0
		c13.6,18.2,33.6,31.4,56.6,36.3c-3.3,4.2-5.2,9.6-5.2,15.3c0,8.4,4.1,15.8,10.4,20.4c-2.5,3.2-4,7.2-4,11.6v51.2
		c0,10.8-8.8,19.6-19.6,19.6H82.8c-6.8,0-12.4,5.6-12.4,12.4V358c0,6.8,5.6,12.4,12.4,12.4h128c6.8,0,12.4-5.6,12.4-12.4v-25.6
		c0-6.8-5.6-12.4-12.4-12.4h-25.6c-10.8,0-19.6-8.8-19.6-19.6v-51.2c0-4.4-1.5-8.4-4-11.6c6.3-4.6,10.4-12,10.4-20.4
		c0-5.8-1.9-11.1-5.2-15.3c23-4.9,42.9-18.1,56.6-36.3c0.1,0,0.2,0,0.2,0c38.6,0,70-31.4,70-70V70C293.6,63.2,288,57.6,281.2,57.6
		L281.2,57.6z M57.2,12h179.2c3.8,0,6.8,3.1,6.8,6.8s-3.1,6.8-6.8,6.8H57.2c-3.8,0-6.8-3.1-6.8-6.8S53.4,12,57.2,12L57.2,12z
		 M12,95.6V70c0-0.2,0.2-0.4,0.4-0.4h38.8v38.8c0,16.1,4,31.3,11.1,44.7C33.9,149.3,12,125,12,95.6L12,95.6z M210.8,332
		c0.2,0,0.4,0.2,0.4,0.4V358c0,0.2-0.2,0.4-0.4,0.4h-128c-0.2,0-0.4-0.2-0.4-0.4v-25.6c0-0.2,0.2-0.4,0.4-0.4H210.8z M153.6,249.2
		v51.2c0,7.4,2.6,14.2,6.8,19.6h-27.3c4.3-5.4,6.8-12.2,6.8-19.6v-51.2c0-3.8,3.1-6.8,6.8-6.8S153.6,245.4,153.6,249.2L153.6,249.2z
		 M160,217.2c0,7.3-5.9,13.2-13.2,13.2c-7.3,0-13.2-5.9-13.2-13.2c0-7.3,5.9-13.2,13.2-13.2C154.1,204,160,209.9,160,217.2
		L160,217.2z M146.8,192c-46.1,0-83.6-37.5-83.6-83.6V37.6h167.2v70.8C230.4,154.5,192.9,192,146.8,192L146.8,192z M281.6,95.6
		c0,29.4-21.9,53.7-50.3,57.5c7.1-13.3,11.1-28.5,11.1-44.7V69.6h38.8c0.2,0,0.4,0.2,0.4,0.4V95.6z M281.6,95.6"/>
</g>
</svg>
