<?xml version="1.0" encoding="utf-8"?>
<!-- Generator: Adobe Illustrator 21.0.1, SVG Export Plug-In . SVG Version: 6.00 Build 0)  -->
<svg version="1.1" id="Layer_1" xmlns="http://www.w3.org/2000/svg" xmlns:xlink="http://www.w3.org/1999/xlink" x="0px" y="0px"
	 viewBox="0 0 409.9 410.9" style="enable-background:new 0 0 409.9 410.9;" xml:space="preserve">
<style type="text/css">
	.st0{clip-path:url(#SVGID_2_);}
</style>
<g>
	<path d="M134.5,84.2c-2-2-4.9-2.6-7.5-1.5c-2.6,1.1-4.2,3.6-4.2,6.4c0,0.7,0.3,72.4-45.3,118l-48.3,48.3c0,0,0,0,0,0c0,0,0,0,0,0
		L10,274.8c-6.4,6.4-10,15-10,24.1c0,9.1,3.6,17.7,10,24.1l4.8,4.8c-2.6,2.6-4,6-4,9.7c0,3.6,1.4,7.1,4,9.7L39,371.3
		c5.3,5.3,14,5.3,19.3,0l4.8,4.8c6.4,6.5,15,10,24.1,10c9.1,0,17.7-3.6,24.1-10l14.5-14.5l44.3,44.3c2.7,2.7,6.2,4,9.7,4
		c3.5,0,7-1.3,9.7-4l12.5-12.5c5.3-5.3,5.3-14,0-19.3l-13.7-13.7c1.5-3.1,2.9-7.4,2.9-12c0-3.8-3.1-6.8-6.8-6.8h-20.8
		c-3.8,0-6.8,3.1-6.8,6.8c0,3.8,3.1,6.8,6.8,6.8h12c-0.5,1.1-1.1,1.9-1.4,2.4c-2,2.7-1.6,6.4,0.7,8.8l17.3,17.3l-12.5,12.5
		l-49.1-49.1c-2.6-2.6-7.1-2.6-9.7,0l-19.3,19.3c-7.7,7.7-21.2,7.7-29,0l-9.7-9.7c-2.7-2.7-7-2.7-9.7,0l-4.8,4.8l-24.1-24.1l4.8-4.8
		c2.7-2.7,2.7-7,0-9.7l-9.7-9.7c-3.9-3.9-6-9-6-14.5c0-5.5,2.1-10.6,6-14.5l14.5-14.5l70.3,69.8c1.3,1.3,3.1,2,4.8,2
		c1.8,0,3.5-0.7,4.8-2c2.7-2.7,2.6-7,0-9.7l-70.2-69.7l43.4-43.4c36.6-36.6,46.1-86.9,48.5-112.1l142.8,142.8
		c-13.9,2-35.9,6.6-59.1,17.2l-82.6-82.6c-2.7-2.7-7-2.7-9.7,0c-2.7,2.7-2.7,7,0,9.7l79.3,79.3c-12.8,7.1-25.7,16.1-37.3,27.7
		l-29,29c-2.7,2.7-2.7,7,0,9.7c2.7,2.7,7,2.7,9.7,0l29-29c45.7-45.7,114.2-48.8,114.8-48.8c2.7-0.1,5.1-1.8,6.1-4.3
		c1-2.5,0.4-5.4-1.5-7.3L134.5,84.2z M134.5,84.2"/>
	<g>
		<defs>
			<rect id="SVGID_1_" width="409.9" height="410.9"/>
		</defs>
		<clipPath id="SVGID_2_">
			<use xlink:href="#SVGID_1_"  style="overflow:visible;"/>
		</clipPath>
		<path class="st0" d="M225.2,82.3c-3.8,0-6.8,3-6.8,6.8c0,3.8,3.1,6.8,6.8,6.8c15.3,0,44,3.1,64.8,23.9
			c20.8,20.8,23.9,49.5,23.9,64.8c0,3.8,3.1,6.8,6.8,6.8c3.8,0,6.8-3.1,6.8-6.8c0-17.4-3.6-50.1-27.9-74.5
			C275.3,85.9,242.6,82.3,225.2,82.3L225.2,82.3z M225.2,82.3"/>
		<path class="st0" d="M357.6,52.3C323.2,17.9,274.9-1.1,225,0.4c-3.8,0.1-6.7,3.3-6.6,7c0.1,3.8,3.2,6.8,7,6.6
			c46-1.3,90.8,16.2,122.5,47.9c31.8,31.8,49.2,76.4,47.9,122.5c-0.1,3.8,2.9,6.9,6.6,7c0.1,0,0.1,0,0.2,0c3.7,0,6.7-2.9,6.8-6.6
			C410.9,135.1,392,86.7,357.6,52.3L357.6,52.3z M357.6,52.3"/>
	</g>
	<path d="M227.5,41.3c-0.8,0-1.6,0-2.4,0c-3.8,0.1-6.8,3.2-6.7,6.9c0.1,3.7,3.1,6.7,6.8,6.7h0.1c35.9-0.7,70.3,12.5,93.7,35.9
		c23.9,23.9,37,58,35.9,93.6c-0.1,3.8,2.9,6.9,6.6,7c0.1,0,0.1,0,0.2,0c3.7,0,6.7-2.9,6.8-6.6c1.2-39.3-13.4-77.1-39.9-103.6
		C303.1,55.8,266.4,41.3,227.5,41.3L227.5,41.3z M227.5,41.3"/>
</g>
</svg>
