<?xml version="1.0" encoding="utf-8"?>
<!-- Generator: Adobe Illustrator 21.0.1, SVG Export Plug-In . SVG Version: 6.00 Build 0)  -->
<svg version="1.1" id="Layer_1" xmlns="http://www.w3.org/2000/svg" xmlns:xlink="http://www.w3.org/1999/xlink" x="0px" y="0px"
	 viewBox="0 0 332.5 376" style="enable-background:new 0 0 332.5 376;" xml:space="preserve">
<g>
	<path d="M326.5,92.4h-16.1c11.6-9.6,19-24.1,19-40.2c0-28.8-23.4-52.2-52.2-52.2c-13.8,0-26.8,5.3-36.6,15l-45.2,44.7
		c-4.7-11.4-15.9-19.4-29-19.4c-13.1,0-24.3,8-29,19.4L92,15C82.2,5.3,69.2,0,55.4,0C26.6,0,3.2,23.4,3.2,52.2
		c0,16.2,7.4,30.6,18.9,40.2H6c-3.3,0-6,2.7-6,6v80c0,3.3,2.7,6,6,6h10V370c0,3.3,2.7,6,6,6h288.5c3.3,0,6-2.7,6-6V184.4h10
		c3.3,0,6-2.7,6-6v-80C332.5,95.1,329.8,92.4,326.5,92.4L326.5,92.4z M248.9,23.6c7.6-7.5,17.6-11.6,28.2-11.6
		c22.2,0,40.2,18,40.2,40.2c0,22.2-18,40.2-40.2,40.2h-79.5V74.2L248.9,23.6z M132.3,104.4h28v138c0,3.3,2.7,6,6,6c3.3,0,6-2.7,6-6
		v-138h28v175.4l-30.9-18.6c-1.9-1.1-4.3-1.1-6.2,0l-30.9,18.6V104.4z M166.3,52.3c10.7,0,19.4,8.7,19.4,19.4v20.7h-38.8V71.7
		C146.9,61,155.6,52.3,166.3,52.3L166.3,52.3z M15.2,52.2C15.2,30,33.2,12,55.4,12C66,12,76,16.1,83.6,23.5l51.3,50.7v18.2H55.4
		C33.2,92.4,15.2,74.4,15.2,52.2L15.2,52.2z M320.5,172.4h-90.3c-3.3,0-6,2.7-6,6c0,3.3,2.7,6,6,6h74.3V364H28V184.4h74.3
		c3.3,0,6-2.7,6-6c0-3.3-2.7-6-6-6H12v-68h108.3v186c0,2.2,1.2,4.2,3,5.2c1.9,1.1,4.2,1,6-0.1l36.9-22.1l36.9,22.1
		c0.9,0.6,2,0.9,3.1,0.9c1,0,2-0.3,3-0.8c1.9-1.1,3-3.1,3-5.2v-186h108.3V172.4z M320.5,172.4"/>
	<path d="M55.4,24c-15.6,0-28.2,12.7-28.2,28.2c0,3.3,2.7,6,6,6c3.3,0,6-2.7,6-6c0-8.9,7.3-16.2,16.2-16.2c3.3,0,6-2.7,6-6
		S58.7,24,55.4,24L55.4,24z M55.4,24"/>
</g>
</svg>
